<svg width="172" height="136" viewBox="0 0 172 136" fill="none" xmlns="http://www.w3.org/2000/svg">
<path d="M86.5621 135.817C121.683 135.817 150.154 107.351 150.154 72.2372C150.154 37.123 121.683 8.65723 86.5621 8.65723C51.4411 8.65723 22.9699 37.123 22.9699 72.2372C22.9699 107.351 51.4411 135.817 86.5621 135.817Z" fill="#FFCC29"/>
<path d="M86.5621 124.743C115.566 124.743 139.078 101.236 139.078 72.2373C139.078 43.239 115.566 19.7312 86.5621 19.7312C57.5582 19.7312 34.0459 43.239 34.0459 72.2373C34.0459 101.236 57.5582 124.743 86.5621 124.743Z" fill="#232222"/>
<path d="M88.2427 15.3477H84.8786V18.7111H88.2427V15.3477Z" fill="#232222"/>
<path d="M86.5621 72.1839C87.155 72.1839 87.6357 71.7033 87.6357 71.1105C87.6357 70.5177 87.155 70.0371 86.5621 70.0371C85.9692 70.0371 85.4885 70.5177 85.4885 71.1105C85.4885 71.7033 85.9692 72.1839 86.5621 72.1839Z" fill="#232222"/>
<path d="M90.4699 15.464L90.1399 18.8113L93.4878 19.1412L93.8178 15.794L90.4699 15.464Z" fill="#232222"/>
<path d="M86.6661 72.1895C87.259 72.1895 87.7397 71.7089 87.7397 71.1161C87.7397 70.5233 87.259 70.0427 86.6661 70.0427C86.0731 70.0427 85.5925 70.5233 85.5925 71.1161C85.5925 71.7089 86.0731 72.1895 86.6661 72.1895Z" fill="#232222"/>
<path d="M96.003 16.1125L95.3467 19.4114L98.6462 20.0676L99.3025 16.7687L96.003 16.1125Z" fill="#232222"/>
<path d="M86.7729 72.2064C87.3658 72.2064 87.8465 71.7258 87.8465 71.133C87.8465 70.5401 87.3658 70.0596 86.7729 70.0596C86.1799 70.0596 85.6993 70.5401 85.6993 71.133C85.6993 71.7258 86.1799 72.2064 86.7729 72.2064Z" fill="#232222"/>
<path d="M101.465 17.3137L100.488 20.5322L103.707 21.5089L104.684 18.2903L101.465 17.3137Z" fill="#232222"/>
<path d="M86.874 72.2317C87.467 72.2317 87.9476 71.7512 87.9476 71.1583C87.9476 70.5655 87.467 70.085 86.874 70.085C86.2811 70.085 85.8005 70.5655 85.8005 71.1583C85.8005 71.7512 86.2811 72.2317 86.874 72.2317Z" fill="#232222"/>
<path d="M106.762 19.0312L105.475 22.1387L108.583 23.4258L109.87 20.3184L106.762 19.0312Z" fill="#232222"/>
<path d="M86.9724 72.2681C87.5654 72.2681 88.046 71.7875 88.046 71.1947C88.046 70.6019 87.5654 70.1213 86.9724 70.1213C86.3795 70.1213 85.8988 70.6019 85.8988 71.1947C85.8988 71.7875 86.3795 72.2681 86.9724 72.2681Z" fill="#232222"/>
<path d="M111.886 21.2765L110.3 24.2427L113.266 25.8285L114.853 22.8623L111.886 21.2765Z" fill="#232222"/>
<path d="M87.068 72.3133C87.6609 72.3133 88.1416 71.8327 88.1416 71.2399C88.1416 70.6471 87.6609 70.1665 87.068 70.1665C86.475 70.1665 85.9944 70.6471 85.9944 71.2399C85.9944 71.8327 86.475 72.3133 87.068 72.3133Z" fill="#232222"/>
<path d="M116.748 23.991L114.879 26.7876L117.676 28.6562L119.545 25.8596L116.748 23.991Z" fill="#232222"/>
<path d="M87.1579 72.3665C87.7508 72.3665 88.2315 71.8859 88.2315 71.2931C88.2315 70.7003 87.7508 70.2197 87.1579 70.2197C86.565 70.2197 86.0843 70.7003 86.0843 71.2931C86.0843 71.8859 86.565 72.3665 87.1579 72.3665Z" fill="#232222"/>
<path d="M121.333 27.198L119.198 29.7979L121.799 31.9318L123.933 29.332L121.333 27.198Z" fill="#232222"/>
<path d="M87.245 72.4283C87.838 72.4283 88.3186 71.9477 88.3186 71.3549C88.3186 70.7621 87.838 70.2815 87.245 70.2815C86.6521 70.2815 86.1714 70.7621 86.1714 71.3549C86.1714 71.9477 86.6521 72.4283 87.245 72.4283Z" fill="#232222"/>
<path d="M125.569 30.8067L123.19 33.1851L125.569 35.5634L127.948 33.1851L125.569 30.8067Z" fill="#232222"/>
<path d="M87.3209 72.4986C87.9138 72.4986 88.3945 72.018 88.3945 71.4252C88.3945 70.8324 87.9138 70.3518 87.3209 70.3518C86.728 70.3518 86.2473 70.8324 86.2473 71.4252C86.2473 72.018 86.728 72.4986 87.3209 72.4986Z" fill="#232222"/>
<path d="M129.445 34.845L126.845 36.9785L128.978 39.5787L131.579 37.4452L129.445 34.845Z" fill="#232222"/>
<path d="M87.394 72.5772C87.9869 72.5772 88.4676 72.0966 88.4676 71.5038C88.4676 70.911 87.9869 70.4304 87.394 70.4304C86.8011 70.4304 86.3204 70.911 86.3204 71.5038C86.3204 72.0966 86.8011 72.5772 87.394 72.5772Z" fill="#232222"/>
<path d="M132.896 39.2109L130.099 41.0796L131.968 43.8762L134.765 42.0076L132.896 39.2109Z" fill="#232222"/>
<path d="M87.4558 72.6617C88.0487 72.6617 88.5294 72.1811 88.5294 71.5883C88.5294 70.9955 88.0487 70.5149 87.4558 70.5149C86.8629 70.5149 86.3822 70.9955 86.3822 71.5883C86.3822 72.1811 86.8629 72.6617 87.4558 72.6617Z" fill="#232222"/>
<path d="M135.906 43.9252L132.939 45.5105L134.525 48.477L137.492 46.8917L135.906 43.9252Z" fill="#232222"/>
<path d="M87.5092 72.7542C88.1022 72.7542 88.5828 72.2736 88.5828 71.6808C88.5828 71.088 88.1022 70.6074 87.5092 70.6074C86.9163 70.6074 86.4356 71.088 86.4356 71.6808C86.4356 72.2736 86.9163 72.7542 87.5092 72.7542Z" fill="#232222"/>
<path d="M138.441 48.8794L135.333 50.1665L136.62 53.274L139.728 51.9868L138.441 48.8794Z" fill="#232222"/>
<path d="M87.5542 72.8499C88.1471 72.8499 88.6278 72.3693 88.6278 71.7765C88.6278 71.1837 88.1471 70.7031 87.5542 70.7031C86.9612 70.7031 86.4806 71.1837 86.4806 71.7765C86.4806 72.3693 86.9612 72.8499 87.5542 72.8499Z" fill="#232222"/>
<path d="M140.481 54.059L137.262 55.0356L138.239 58.2542L141.458 57.2776L140.481 54.059Z" fill="#232222"/>
<path d="M87.5907 72.9483C88.1837 72.9483 88.6643 72.4677 88.6643 71.8749C88.6643 71.2821 88.1837 70.8015 87.5907 70.8015C86.9978 70.8015 86.5171 71.2821 86.5171 71.8749C86.5171 72.4677 86.9978 72.9483 87.5907 72.9483Z" fill="#232222"/>
<path d="M141.991 59.4495L138.691 60.1057L139.348 63.4046L142.647 62.7484L141.991 59.4495Z" fill="#232222"/>
<path d="M87.616 73.0494C88.2089 73.0494 88.6896 72.5688 88.6896 71.976C88.6896 71.3832 88.2089 70.9026 87.616 70.9026C87.0231 70.9026 86.5424 71.3832 86.5424 71.976C86.5424 72.5688 87.0231 73.0494 87.616 73.0494Z" fill="#232222"/>
<path d="M142.963 64.956L139.615 65.2854L139.945 68.6327L143.292 68.3033L142.963 64.956Z" fill="#232222"/>
<path d="M87.6329 73.1534C88.2258 73.1534 88.7065 72.6728 88.7065 72.08C88.7065 71.4872 88.2258 71.0066 87.6329 71.0066C87.0399 71.0066 86.5593 71.4872 86.5593 72.08C86.5593 72.6728 87.0399 73.1534 87.6329 73.1534Z" fill="#232222"/>
<path d="M143.412 70.5037H140.048V73.8671H143.412V70.5037Z" fill="#232222"/>
<path d="M87.6357 73.2601C88.2286 73.2601 88.7093 72.7795 88.7093 72.1867C88.7093 71.5939 88.2286 71.1133 87.6357 71.1133C87.0428 71.1133 86.5621 71.5939 86.5621 72.1867C86.5621 72.7795 87.0428 73.2601 87.6357 73.2601Z" fill="#232222"/>
<path d="M139.968 75.768L139.638 79.1152L142.986 79.4452L143.316 76.098L139.968 75.768Z" fill="#232222"/>
<path d="M87.6329 73.3641C88.2258 73.3641 88.7065 72.8835 88.7065 72.2907C88.7065 71.6978 88.2258 71.2173 87.6329 71.2173C87.0399 71.2173 86.5593 71.6978 86.5593 72.2907C86.5593 72.8835 87.0399 73.3641 87.6329 73.3641Z" fill="#232222"/>
<path d="M139.35 80.9694L138.693 84.2683L141.993 84.9245L142.649 81.6256L139.35 80.9694Z" fill="#232222"/>
<path d="M87.616 73.4681C88.2089 73.4681 88.6896 72.9875 88.6896 72.3947C88.6896 71.8019 88.2089 71.3213 87.616 71.3213C87.0231 71.3213 86.5424 71.8019 86.5424 72.3947C86.5424 72.9875 87.0231 73.4681 87.616 73.4681Z" fill="#232222"/>
<path d="M138.242 86.1135L137.265 89.332L140.485 90.3087L141.461 87.0901L138.242 86.1135Z" fill="#232222"/>
<path d="M87.5907 73.5721C88.1837 73.5721 88.6643 73.0915 88.6643 72.4987C88.6643 71.9059 88.1837 71.4253 87.5907 71.4253C86.9978 71.4253 86.5171 71.9059 86.5171 72.4987C86.5171 73.0915 86.9978 73.5721 87.5907 73.5721Z" fill="#232222"/>
<path d="M136.618 91.0954L135.331 94.2029L138.439 95.49L139.726 92.3826L136.618 91.0954Z" fill="#232222"/>
<path d="M87.5542 73.6705C88.1471 73.6705 88.6278 73.1899 88.6278 72.5971C88.6278 72.0043 88.1471 71.5237 87.5542 71.5237C86.9612 71.5237 86.4806 72.0043 86.4806 72.5971C86.4806 73.1899 86.9612 73.6705 87.5542 73.6705Z" fill="#232222"/>
<path d="M134.533 95.9291L132.947 98.8953L135.914 100.481L137.5 97.5149L134.533 95.9291Z" fill="#232222"/>
<path d="M87.5092 73.7659C88.1022 73.7659 88.5828 73.2853 88.5828 72.6925C88.5828 72.0997 88.1022 71.6191 87.5092 71.6191C86.9163 71.6191 86.4356 72.0997 86.4356 72.6925C86.4356 73.2853 86.9163 73.7659 87.5092 73.7659Z" fill="#232222"/>
<path d="M131.97 100.497L130.101 103.294L132.898 105.163L134.767 102.366L131.97 100.497Z" fill="#232222"/>
<path d="M87.4558 73.8558C88.0487 73.8558 88.5294 73.3752 88.5294 72.7824C88.5294 72.1895 88.0487 71.709 87.4558 71.709C86.8629 71.709 86.3822 72.1895 86.3822 72.7824C86.3822 73.3752 86.8629 73.8558 87.4558 73.8558Z" fill="#232222"/>
<path d="M128.974 104.829L126.84 107.429L129.44 109.563L131.575 106.963L128.974 104.829Z" fill="#232222"/>
<path d="M87.394 73.94C87.9869 73.94 88.4676 73.4594 88.4676 72.8666C88.4676 72.2738 87.9869 71.7932 87.394 71.7932C86.8011 71.7932 86.3204 72.2738 86.3204 72.8666C86.3204 73.4594 86.8011 73.94 87.394 73.94Z" fill="#232222"/>
<path d="M125.57 108.811L123.191 111.189L125.57 113.568L127.948 111.189L125.57 108.811Z" fill="#232222"/>
<path d="M87.3209 74.0188C87.9138 74.0188 88.3945 73.5383 88.3945 72.9455C88.3945 72.3526 87.9138 71.8721 87.3209 71.8721C86.728 71.8721 86.2473 72.3526 86.2473 72.9455C86.2473 73.5383 86.728 74.0188 87.3209 74.0188Z" fill="#232222"/>
<path d="M121.791 112.477L119.19 114.61L121.324 117.21L123.925 115.077L121.791 112.477Z" fill="#232222"/>
<path d="M87.245 74.0889C87.838 74.0889 88.3186 73.6083 88.3186 73.0155C88.3186 72.4227 87.838 71.9421 87.245 71.9421C86.6521 71.9421 86.1714 72.4227 86.1714 73.0155C86.1714 73.6083 86.6521 74.0889 87.245 74.0889Z" fill="#232222"/>
<path d="M117.675 115.715L114.878 117.583L116.747 120.38L119.544 118.511L117.675 115.715Z" fill="#232222"/>
<path d="M87.1579 74.1536C87.7508 74.1536 88.2315 73.673 88.2315 73.0802C88.2315 72.4874 87.7508 72.0068 87.1579 72.0068C86.565 72.0068 86.0843 72.4874 86.0843 73.0802C86.0843 73.673 86.565 74.1536 87.1579 74.1536Z" fill="#232222"/>
<path d="M113.253 118.571L110.286 120.156L111.872 123.123L114.839 121.538L113.253 118.571Z" fill="#232222"/>
<path d="M87.068 74.2071C87.6609 74.2071 88.1416 73.7265 88.1416 73.1337C88.1416 72.5409 87.6609 72.0603 87.068 72.0603C86.475 72.0603 85.9944 72.5409 85.9944 73.1337C85.9944 73.7265 86.475 74.2071 87.068 74.2071Z" fill="#232222"/>
<path d="M108.583 120.946L105.475 122.233L106.763 125.341L109.871 124.054L108.583 120.946Z" fill="#232222"/>
<path d="M86.9724 74.252C87.5654 74.252 88.046 73.7714 88.046 73.1786C88.046 72.5858 87.5654 72.1052 86.9724 72.1052C86.3795 72.1052 85.8988 72.5858 85.8988 73.1786C85.8988 73.7714 86.3795 74.252 86.9724 74.252Z" fill="#232222"/>
<path d="M103.687 122.884L100.468 123.86L101.444 127.079L104.663 126.103L103.687 122.884Z" fill="#232222"/>
<path d="M86.874 74.2886C87.467 74.2886 87.9476 73.8081 87.9476 73.2152C87.9476 72.6224 87.467 72.1418 86.874 72.1418C86.2811 72.1418 85.8005 72.6224 85.8005 73.2152C85.8005 73.8081 86.2811 74.2886 86.874 74.2886Z" fill="#232222"/>
<path d="M98.6459 124.304L95.3465 124.96L96.0028 128.259L99.3022 127.602L98.6459 124.304Z" fill="#232222"/>
<path d="M86.7729 74.3138C87.3658 74.3138 87.8465 73.8332 87.8465 73.2404C87.8465 72.6476 87.3658 72.167 86.7729 72.167C86.1799 72.167 85.6993 72.6476 85.6993 73.2404C85.6993 73.8332 86.1799 74.3138 86.7729 74.3138Z" fill="#232222"/>
<path d="M93.4628 125.25L90.1149 125.579L90.4443 128.927L93.7923 128.597L93.4628 125.25Z" fill="#232222"/>
<path d="M86.6661 74.3279C87.259 74.3279 87.7397 73.8474 87.7397 73.2545C87.7397 72.6617 87.259 72.1812 86.6661 72.1812C86.0731 72.1812 85.5925 72.6617 85.5925 73.2545C85.5925 73.8474 86.0731 74.3279 86.6661 74.3279Z" fill="#232222"/>
<path d="M88.2427 125.662H84.8786V129.026H88.2427V125.662Z" fill="#232222"/>
<path d="M86.5621 74.3335C87.155 74.3335 87.6357 73.853 87.6357 73.2602C87.6357 72.6673 87.155 72.1868 86.5621 72.1868C85.9692 72.1868 85.4885 72.6673 85.4885 73.2602C85.4885 73.853 85.9692 74.3335 86.5621 74.3335Z" fill="#232222"/>
<path d="M79.6525 125.257L79.3225 128.604L82.6704 128.934L83.0004 125.587L79.6525 125.257Z" fill="#232222"/>
<path d="M86.4581 74.3279C87.051 74.3279 87.5317 73.8474 87.5317 73.2545C87.5317 72.6617 87.051 72.1812 86.4581 72.1812C85.8652 72.1812 85.3845 72.6617 85.3845 73.2545C85.3845 73.8474 85.8652 74.3279 86.4581 74.3279Z" fill="#232222"/>
<path d="M74.4776 124.304L73.8213 127.603L77.1208 128.259L77.7771 124.961L74.4776 124.304Z" fill="#232222"/>
<path d="M86.3513 74.3138C86.9442 74.3138 87.4249 73.8332 87.4249 73.2404C87.4249 72.6476 86.9442 72.167 86.3513 72.167C85.7584 72.167 85.2777 72.6476 85.2777 73.2404C85.2777 73.8332 85.7584 74.3138 86.3513 74.3138Z" fill="#232222"/>
<path d="M69.4284 122.886L68.4516 126.105L71.6708 127.082L72.6476 123.863L69.4284 122.886Z" fill="#232222"/>
<path d="M86.2501 74.2886C86.8431 74.2886 87.3237 73.8081 87.3237 73.2152C87.3237 72.6224 86.8431 72.1418 86.2501 72.1418C85.6572 72.1418 85.1765 72.6224 85.1765 73.2152C85.1765 73.8081 85.6572 74.2886 86.2501 74.2886Z" fill="#232222"/>
<path d="M64.5378 120.945L63.2504 124.052L66.3584 125.34L67.6458 122.232L64.5378 120.945Z" fill="#232222"/>
<path d="M86.1518 74.252C86.7447 74.252 87.2254 73.7714 87.2254 73.1786C87.2254 72.5858 86.7447 72.1052 86.1518 72.1052C85.5588 72.1052 85.0782 72.5858 85.0782 73.1786C85.0782 73.7714 85.5588 74.252 86.1518 74.252Z" fill="#232222"/>
<path d="M59.8661 118.54L58.2806 121.506L61.2476 123.092L62.8331 120.125L59.8661 118.54Z" fill="#232222"/>
<path d="M86.0562 74.2071C86.6491 74.2071 87.1298 73.7265 87.1298 73.1337C87.1298 72.5409 86.6491 72.0603 86.0562 72.0603C85.4633 72.0603 84.9826 72.5409 84.9826 73.1337C84.9826 73.7265 85.4633 74.2071 86.0562 74.2071Z" fill="#232222"/>
<path d="M55.449 115.717L53.58 118.514L56.3772 120.382L58.2462 117.586L55.449 115.717Z" fill="#232222"/>
<path d="M85.9663 74.1536C86.5592 74.1536 87.0399 73.673 87.0399 73.0802C87.0399 72.4874 86.5592 72.0068 85.9663 72.0068C85.3733 72.0068 84.8927 72.4874 84.8927 73.0802C84.8927 73.673 85.3733 74.1536 85.9663 74.1536Z" fill="#232222"/>
<path d="M51.3288 112.472L49.1944 115.072L51.7947 117.206L53.9291 114.606L51.3288 112.472Z" fill="#232222"/>
<path d="M85.8791 74.0889C86.4721 74.0889 86.9527 73.6083 86.9527 73.0155C86.9527 72.4227 86.4721 71.9421 85.8791 71.9421C85.2862 71.9421 84.8055 72.4227 84.8055 73.0155C84.8055 73.6083 85.2862 74.0889 85.8791 74.0889Z" fill="#232222"/>
<path d="M47.5506 108.809L45.1718 111.187L47.5506 113.566L49.9294 111.187L47.5506 108.809Z" fill="#232222"/>
<path d="M85.8033 74.0188C86.3962 74.0188 86.8769 73.5383 86.8769 72.9455C86.8769 72.3526 86.3962 71.8721 85.8033 71.8721C85.2103 71.8721 84.7297 72.3526 84.7297 72.9455C84.7297 73.5383 85.2103 74.0188 85.8033 74.0188Z" fill="#232222"/>
<path d="M44.1562 104.797L41.5559 106.931L43.6903 109.531L46.2906 107.397L44.1562 104.797Z" fill="#232222"/>
<path d="M85.7302 73.94C86.3231 73.94 86.8038 73.4594 86.8038 72.8666C86.8038 72.2738 86.3231 71.7932 85.7302 71.7932C85.1373 71.7932 84.6566 72.2738 84.6566 72.8666C84.6566 73.4594 85.1373 73.94 85.7302 73.94Z" fill="#232222"/>
<path d="M41.6938 99.9834L38.9016 101.867L40.7855 104.659L43.5777 102.775L41.6938 99.9834Z" fill="#232222"/>
<path d="M85.6684 73.8558C86.2613 73.8558 86.742 73.3752 86.742 72.7824C86.742 72.1895 86.2613 71.709 85.6684 71.709C85.0754 71.709 84.5948 72.1895 84.5948 72.7824C84.5948 73.3752 85.0754 73.8558 85.6684 73.8558Z" fill="#232222"/>
<path d="M38.5926 95.9225L35.6256 97.5078L37.2112 100.474L40.1782 98.889L38.5926 95.9225Z" fill="#232222"/>
<path d="M85.615 73.7659C86.2079 73.7659 86.6886 73.2853 86.6886 72.6925C86.6886 72.0997 86.2079 71.6191 85.615 71.6191C85.022 71.6191 84.5414 72.0997 84.5414 72.6925C84.5414 73.2853 85.022 73.7659 85.615 73.7659Z" fill="#232222"/>
<path d="M36.5037 91.0974L33.3957 92.3845L34.683 95.492L37.7911 94.2048L36.5037 91.0974Z" fill="#232222"/>
<path d="M85.57 73.6705C86.1629 73.6705 86.6436 73.1899 86.6436 72.5971C86.6436 72.0043 86.1629 71.5237 85.57 71.5237C84.9771 71.5237 84.4964 72.0043 84.4964 72.5971C84.4964 73.1899 84.9771 73.6705 85.57 73.6705Z" fill="#232222"/>
<path d="M34.8815 86.1084L31.6621 87.0845L32.6384 90.3032L35.8577 89.3271L34.8815 86.1084Z" fill="#232222"/>
<path d="M85.5335 73.5721C86.1264 73.5721 86.6071 73.0915 86.6071 72.4987C86.6071 71.9059 86.1264 71.4253 85.5335 71.4253C84.9405 71.4253 84.4599 71.9059 84.4599 72.4987C84.4599 73.0915 84.9405 73.5721 85.5335 73.5721Z" fill="#232222"/>
<path d="M33.7745 80.97L30.475 81.6262L31.1313 84.9251L34.4308 84.2689L33.7745 80.97Z" fill="#232222"/>
<path d="M85.5082 73.4681C86.1011 73.4681 86.5818 72.9875 86.5818 72.3947C86.5818 71.8019 86.1011 71.3213 85.5082 71.3213C84.9152 71.3213 84.4346 71.8019 84.4346 72.3947C84.4346 72.9875 84.9152 73.4681 85.5082 73.4681Z" fill="#232222"/>
<path d="M33.1602 75.759L29.8123 76.0884L30.1417 79.4357L33.4897 79.1063L33.1602 75.759Z" fill="#232222"/>
<path d="M85.4913 73.3641C86.0842 73.3641 86.5649 72.8835 86.5649 72.2907C86.5649 71.6978 86.0842 71.2173 85.4913 71.2173C84.8984 71.2173 84.4177 71.6978 84.4177 72.2907C84.4177 72.8835 84.8984 73.3641 85.4913 73.3641Z" fill="#232222"/>
<path d="M33.0763 70.5037H29.7122V73.8671H33.0763V70.5037Z" fill="#232222"/>
<path d="M85.4885 73.2601C86.0814 73.2601 86.5621 72.7795 86.5621 72.1867C86.5621 71.5939 86.0814 71.1133 85.4885 71.1133C84.8956 71.1133 84.4149 71.5939 84.4149 72.1867C84.4149 72.7795 84.8956 73.2601 85.4885 73.2601Z" fill="#232222"/>
<path d="M30.146 64.9303L29.8166 68.2776L33.1646 68.607L33.494 65.2597L30.146 64.9303Z" fill="#232222"/>
<path d="M85.4913 73.1534C86.0842 73.1534 86.5649 72.6728 86.5649 72.08C86.5649 71.4872 86.0842 71.0066 85.4913 71.0066C84.8984 71.0066 84.4177 71.4872 84.4177 72.08C84.4177 72.6728 84.8984 73.1534 85.4913 73.1534Z" fill="#232222"/>
<path d="M31.1337 59.448L30.4774 62.7468L33.7768 63.403L34.4331 60.1042L31.1337 59.448Z" fill="#232222"/>
<path d="M85.5082 73.0494C86.1011 73.0494 86.5818 72.5688 86.5818 71.976C86.5818 71.3832 86.1011 70.9026 85.5082 70.9026C84.9152 70.9026 84.4346 71.3832 84.4346 71.976C84.4346 72.5688 84.9152 73.0494 85.5082 73.0494Z" fill="#232222"/>
<path d="M32.6509 54.0869L31.6741 57.3054L34.8933 58.2821L35.8701 55.0635L32.6509 54.0869Z" fill="#232222"/>
<path d="M85.5335 72.9483C86.1264 72.9483 86.6071 72.4677 86.6071 71.8749C86.6071 71.2821 86.1264 70.8015 85.5335 70.8015C84.9405 70.8015 84.4599 71.2821 84.4599 71.8749C84.4599 72.4677 84.9405 72.9483 85.5335 72.9483Z" fill="#232222"/>
<path d="M34.6812 48.8808L33.3938 51.9883L36.5019 53.2754L37.7893 50.168L34.6812 48.8808Z" fill="#232222"/>
<path d="M85.57 72.8499C86.1629 72.8499 86.6436 72.3693 86.6436 71.7765C86.6436 71.1837 86.1629 70.7031 85.57 70.7031C84.9771 70.7031 84.4964 71.1837 84.4964 71.7765C84.4964 72.3693 84.9771 72.8499 85.57 72.8499Z" fill="#232222"/>
<path d="M37.2189 43.9196L35.6328 46.8857L38.5996 48.4715L40.1856 45.5054L37.2189 43.9196Z" fill="#232222"/>
<path d="M85.615 72.7542C86.2079 72.7542 86.6886 72.2736 86.6886 71.6808C86.6886 71.088 86.2079 70.6074 85.615 70.6074C85.022 70.6074 84.5414 71.088 84.5414 71.6808C84.5414 72.2736 85.022 72.7542 85.615 72.7542Z" fill="#232222"/>
<path d="M40.2265 39.2107L38.3575 42.0073L41.1546 43.876L43.0236 41.0793L40.2265 39.2107Z" fill="#232222"/>
<path d="M85.6684 72.6617C86.2613 72.6617 86.742 72.1811 86.742 71.5883C86.742 70.9955 86.2613 70.5149 85.6684 70.5149C85.0754 70.5149 84.5948 70.9955 84.5948 71.5883C84.5948 72.1811 85.0754 72.6617 85.6684 72.6617Z" fill="#232222"/>
<path d="M43.6842 34.8384L41.5498 37.4382L44.1501 39.5722L46.2845 36.9724L43.6842 34.8384Z" fill="#232222"/>
<path d="M85.7302 72.5772C86.3231 72.5772 86.8038 72.0966 86.8038 71.5038C86.8038 70.911 86.3231 70.4304 85.7302 70.4304C85.1373 70.4304 84.6566 70.911 84.6566 71.5038C84.6566 72.0966 85.1373 72.5772 85.7302 72.5772Z" fill="#232222"/>
<path d="M47.5526 30.8077L45.1738 33.186L47.5526 35.5644L49.9314 33.186L47.5526 30.8077Z" fill="#232222"/>
<path d="M85.8033 72.4986C86.3962 72.4986 86.8769 72.018 86.8769 71.4252C86.8769 70.8324 86.3962 70.3518 85.8033 70.3518C85.2103 70.3518 84.7297 70.8324 84.7297 71.4252C84.7297 72.018 85.2103 72.4986 85.8033 72.4986Z" fill="#232222"/>
<path d="M51.7987 27.1919L49.198 29.3254L51.332 31.9256L53.9327 29.7921L51.7987 27.1919Z" fill="#232222"/>
<path d="M85.8791 72.4283C86.4721 72.4283 86.9527 71.9477 86.9527 71.3549C86.9527 70.7621 86.4721 70.2815 85.8791 70.2815C85.2862 70.2815 84.8055 70.7621 84.8055 71.3549C84.8055 71.9477 85.2862 72.4283 85.8791 72.4283Z" fill="#232222"/>
<path d="M56.3773 23.9932L53.5802 25.8618L55.4492 28.6584L58.2463 26.7898L56.3773 23.9932Z" fill="#232222"/>
<path d="M85.9663 72.3665C86.5592 72.3665 87.0399 71.8859 87.0399 71.2931C87.0399 70.7003 86.5592 70.2197 85.9663 70.2197C85.3733 70.2197 84.8927 70.7003 84.8927 71.2931C84.8927 71.8859 85.3733 72.3665 85.9663 72.3665Z" fill="#232222"/>
<path d="M61.2456 21.2765L58.2786 22.8618L59.8642 25.8283L62.8312 24.243L61.2456 21.2765Z" fill="#232222"/>
<path d="M86.0562 72.3133C86.6491 72.3133 87.1298 71.8327 87.1298 71.2399C87.1298 70.6471 86.6491 70.1665 86.0562 70.1665C85.4633 70.1665 84.9826 70.6471 84.9826 71.2399C84.9826 71.8327 85.4633 72.3133 86.0562 72.3133Z" fill="#232222"/>
<path d="M66.3609 19.0305L63.2529 20.3176L64.5403 23.4251L67.6483 22.1379L66.3609 19.0305Z" fill="#232222"/>
<path d="M86.1518 72.2681C86.7447 72.2681 87.2254 71.7875 87.2254 71.1947C87.2254 70.6019 86.7447 70.1213 86.1518 70.1213C85.5588 70.1213 85.0782 70.6019 85.0782 71.1947C85.0782 71.7875 85.5588 72.2681 86.1518 72.2681Z" fill="#232222"/>
<path d="M71.6703 17.2965L68.4511 18.2732L69.4279 21.4917L72.6471 20.5151L71.6703 17.2965Z" fill="#232222"/>
<path d="M86.2501 72.2317C86.8431 72.2317 87.3237 71.7512 87.3237 71.1583C87.3237 70.5655 86.8431 70.085 86.2501 70.085C85.6572 70.085 85.1765 70.5655 85.1765 71.1583C85.1765 71.7512 85.6572 72.2317 86.2501 72.2317Z" fill="#232222"/>
<path d="M77.1218 16.1104L73.8223 16.7666L74.4786 20.0654L77.7781 19.4093L77.1218 16.1104Z" fill="#232222"/>
<path d="M86.3513 72.2064C86.9442 72.2064 87.4249 71.7258 87.4249 71.133C87.4249 70.5401 86.9442 70.0596 86.3513 70.0596C85.7584 70.0596 85.2777 70.5401 85.2777 71.133C85.2777 71.7258 85.7584 72.2064 86.3513 72.2064Z" fill="#232222"/>
<path d="M82.6576 15.4653L79.3097 15.7947L79.6391 19.142L82.9871 18.8126L82.6576 15.4653Z" fill="#232222"/>
<path d="M86.4581 72.1895C87.051 72.1895 87.5317 71.7089 87.5317 71.1161C87.5317 70.5233 87.051 70.0427 86.4581 70.0427C85.8652 70.0427 85.3845 70.5233 85.3845 71.1161C85.3845 71.7089 85.8652 72.1895 86.4581 72.1895Z" fill="#232222"/>
<path d="M88.2427 15.3477H84.8786V18.7111H88.2427V15.3477Z" fill="#232222"/>
<path d="M86.5621 72.1839C87.155 72.1839 87.6357 71.7033 87.6357 71.1105C87.6357 70.5177 87.155 70.0371 86.5621 70.0371C85.9692 70.0371 85.4885 70.5177 85.4885 71.1105C85.4885 71.7033 85.9692 72.1839 86.5621 72.1839Z" fill="#232222"/>
<path d="M165.499 43.9612H6.64673C3.86989 43.9612 1.61882 46.2118 1.61882 48.9881V93.5618C1.61882 96.3382 3.86989 98.5888 6.64673 98.5888H165.499C168.276 98.5888 170.527 96.3382 170.527 93.5618V48.9881C170.527 46.2118 168.276 43.9612 165.499 43.9612Z" fill="#FFCC29"/>
<path d="M165.499 45.3661C166.46 45.3668 167.381 45.7487 168.06 46.4277C168.739 47.1068 169.121 48.0277 169.122 48.988V93.5702C169.121 94.5306 168.739 95.4514 168.06 96.1305C167.381 96.8096 166.46 97.1914 165.499 97.1922H6.64673C5.68617 97.1914 4.76516 96.8096 4.08593 96.1305C3.40671 95.4514 3.0248 94.5306 3.02405 93.5702V48.988C3.0248 48.0277 3.40671 47.1068 4.08593 46.4277C4.76516 45.7487 5.68617 45.3668 6.64673 45.3661H165.499ZM165.499 42.5562H6.64673C4.94056 42.5562 3.30426 43.2338 2.09782 44.44C0.89137 45.6462 0.213595 47.2822 0.213595 48.988V93.5702C0.213595 95.276 0.89137 96.912 2.09782 98.1182C3.30426 99.3245 4.94056 100.002 6.64673 100.002H165.499C167.206 100.002 168.842 99.3245 170.048 98.1182C171.255 96.912 171.933 95.276 171.933 93.5702V48.988C171.933 47.2822 171.255 45.6462 170.048 44.44C168.842 43.2338 167.206 42.5562 165.499 42.5562Z" fill="#232222"/>
<path d="M164.533 50.1794H7.61634C7.50769 50.1794 7.41961 50.2675 7.41961 50.3761V92.1708C7.41961 92.2795 7.50769 92.3675 7.61634 92.3675H164.533C164.641 92.3675 164.729 92.2795 164.729 92.1708V50.3761C164.729 50.2675 164.641 50.1794 164.533 50.1794Z" fill="#FFCC29"/>
<path d="M163.535 51.3737V91.1733H8.61405V51.3737H163.535ZM164.533 48.988H7.61634C7.43378 48.9877 7.25294 49.0233 7.08417 49.0929C6.9154 49.1625 6.76202 49.2647 6.6328 49.3936C6.50358 49.5225 6.40106 49.6757 6.33112 49.8443C6.26117 50.0129 6.22516 50.1936 6.22516 50.3761V92.1652C6.22514 92.5354 6.37126 92.8907 6.63176 93.1538C6.89226 93.4168 7.24609 93.5665 7.61634 93.5702H164.533C164.902 93.5658 165.255 93.4158 165.515 93.1528C165.775 92.8898 165.921 92.535 165.921 92.1652V50.3761C165.921 50.008 165.775 49.6549 165.514 49.3946C165.254 49.1343 164.901 48.988 164.533 48.988Z" fill="#232222"/>
<path d="M35.4989 59.8511V79.0597H37.5786V85.2696H33.925V82.2461H23.1329V85.2555H19.4793V79.0456H21.7276C22.3656 78.4471 22.7197 77.444 22.7816 76.0362L23.5544 59.8511H35.4989ZM25.2941 79.0456H31.8284V63.0291H26.9804L26.4352 75.8367C26.3284 77.251 25.948 78.3207 25.2941 79.0456Z" fill="#232222"/>
<path d="M39.9816 76.1965V65.8869C39.9816 63.86 40.5521 62.2912 41.6931 61.1803C42.8342 60.0695 44.4727 59.515 46.6086 59.5169C48.7446 59.5169 50.3831 60.0713 51.5241 61.1803C52.6652 62.2893 53.2366 63.8582 53.2385 65.8869V76.1965C53.2385 78.2253 52.667 79.7941 51.5241 80.9031C50.3812 82.0121 48.7427 82.5666 46.6086 82.5666C44.4764 82.5666 42.8379 82.0121 41.6931 80.9031C40.5483 79.7941 39.9778 78.2253 39.9816 76.1965ZM49.5877 76.3567V65.7268C49.5877 64.7452 49.331 63.9959 48.8177 63.4788C48.3043 62.9618 47.5679 62.7052 46.6086 62.7089C45.6475 62.7089 44.9111 62.9656 44.3996 63.4788C43.8881 63.9921 43.6324 64.7414 43.6324 65.7268V76.3567C43.6324 77.3383 43.8881 78.0876 44.3996 78.6046C44.9111 79.1216 45.6475 79.3773 46.6086 79.3717C47.5698 79.3717 48.3061 79.116 48.8177 78.6046C49.3292 78.0932 49.5858 77.3439 49.5877 76.3567Z" fill="#232222"/>
<path d="M60.377 82.2461H56.7234V59.8511H70.045V82.2461H66.3914V63.0375H60.377V82.2461Z" fill="#232222"/>
<path d="M73.5384 76.1965V65.8869C73.5384 63.86 74.1099 62.2912 75.2528 61.1803C76.3957 60.0695 78.0342 59.515 80.1683 59.5169C82.3005 59.5169 83.9381 60.0713 85.081 61.1803C86.2239 62.2893 86.7954 63.8582 86.7954 65.8869V76.1965C86.7954 78.2253 86.2239 79.7941 85.081 80.9031C83.9381 82.0121 82.3005 82.5666 80.1683 82.5666C78.0323 82.5666 76.3939 82.0121 75.2528 80.9031C74.1118 79.7941 73.5403 78.2253 73.5384 76.1965ZM83.1446 76.3567V65.7268C83.1446 64.7452 82.8888 63.9959 82.3773 63.4788C81.8658 62.9618 81.1295 62.7052 80.1683 62.7089C79.2071 62.7089 78.4698 62.9656 77.9565 63.4788C77.4431 63.9921 77.1873 64.7414 77.1892 65.7268V76.3567C77.1892 77.3383 77.445 78.0876 77.9565 78.6046C78.468 79.1216 79.2052 79.3773 80.1683 79.3717C81.1276 79.3717 81.8639 79.116 82.3773 78.6046C82.8907 78.0932 83.1465 77.3439 83.1446 76.3567Z" fill="#232222"/>
<path d="M93.4871 82.2461H90.2859V59.8511H95.4741L99.2092 76.5167L102.933 59.8511H108.155V82.2461H104.664V64.6055L100.598 82.2461H97.5538L93.4871 64.6055V82.2461Z" fill="#232222"/>
<path d="M111.612 76.1965V65.8869C111.612 63.86 112.183 62.2912 113.326 61.1803C114.469 60.0695 116.107 59.515 118.242 59.5169C120.374 59.5169 122.011 60.0713 123.154 61.1803C124.297 62.2893 124.869 63.8582 124.869 65.8869V76.1965C124.869 78.2253 124.297 79.7941 123.154 80.9031C122.011 82.0121 120.374 82.5666 118.242 82.5666C116.106 82.5666 114.467 82.0121 113.326 80.9031C112.185 79.7941 111.614 78.2253 111.612 76.1965ZM121.218 76.3567V65.7268C121.218 64.7452 120.962 63.9959 120.451 63.4788C119.939 62.9618 119.203 62.7052 118.242 62.7089C117.28 62.7089 116.543 62.9656 116.03 63.4788C115.516 63.9921 115.261 64.7414 115.262 65.7268V76.3567C115.262 77.3383 115.518 78.0876 116.03 78.6046C116.541 79.1216 117.279 79.3773 118.242 79.3717C119.201 79.3717 119.937 79.116 120.451 78.6046C120.964 78.0932 121.22 77.3439 121.218 76.3567Z" fill="#232222"/>
<path d="M132.01 82.2461H128.356V59.8511H139.435V63.0516H132.01V82.2461Z" fill="#232222"/>
<path d="M153.816 82.2461H150.078L149.182 77.8935H143.249L142.352 82.2461H138.893L143.856 59.8511H148.788L153.816 82.2461ZM146.194 63.6473L143.921 74.724H148.499L146.194 63.6473Z" fill="#232222"/>
<path d="M71.9646 103.767L69.0023 108.01L71.9477 112.349H70.6268L68.2941 108.817L65.8968 112.349H64.6518L67.6449 108.061L64.722 103.767H66.0457L68.3559 107.254L70.7195 103.767H71.9646Z" fill="#F58635"/>
<path d="M80.2695 112.349H79.0525L78.2094 109.958H74.4996L73.6565 112.349H72.5098L75.6322 103.767H77.1527L80.2695 112.349ZM77.8609 108.977L76.3545 104.762L74.8453 108.977H77.8609Z" fill="#F58635"/>
<path d="M87.186 106.361C87.1893 106.723 87.1215 107.082 86.9865 107.417C86.8579 107.733 86.6667 108.02 86.4244 108.26C86.1275 108.556 85.7698 108.783 85.3761 108.926C84.8838 109.087 84.3676 109.162 83.85 109.148H82.7089V112.346H81.5651V103.767H83.895C84.3341 103.76 84.7725 103.804 85.2018 103.897C85.541 103.975 85.8636 104.113 86.1546 104.304C86.4697 104.511 86.73 104.792 86.9134 105.122C87.1061 105.506 87.1998 105.932 87.186 106.361ZM85.9972 106.389C86.0038 106.124 85.9509 105.861 85.8426 105.619C85.7387 105.399 85.5751 105.213 85.3704 105.082C85.1773 104.959 84.9629 104.872 84.7381 104.827C84.443 104.768 84.1424 104.742 83.8416 104.748H82.7174V108.182H83.6785C84.0571 108.191 84.4352 108.149 84.8027 108.058C85.0668 107.989 85.3088 107.854 85.5053 107.665C85.6733 107.5 85.8037 107.3 85.8876 107.08C85.9667 106.859 86.0048 106.624 86 106.389H85.9972Z" fill="#F58635"/>
<path d="M95.5893 112.349H94.125L90.6373 108.435H89.8588V112.349H88.7177V103.767H89.8588V107.62C90.0474 107.618 90.2356 107.599 90.4208 107.564C90.5951 107.527 90.7615 107.461 90.9127 107.367C91.0823 107.265 91.2358 107.138 91.368 106.99C91.5286 106.809 91.6621 106.606 91.7642 106.386C91.8148 106.282 91.8739 106.153 91.9413 105.996C92.0088 105.838 92.0762 105.673 92.1437 105.501C92.3273 104.977 92.6498 104.513 93.0767 104.158C93.5462 103.868 94.0946 103.733 94.645 103.77H95.1031V104.79H94.6225C94.413 104.784 94.2036 104.808 94.0014 104.863C93.8481 104.907 93.7068 104.985 93.5882 105.091C93.4696 105.207 93.3742 105.344 93.3072 105.496C93.2229 105.664 93.1386 105.861 93.0514 106.088C92.9082 106.493 92.7024 106.872 92.4416 107.212C92.2083 107.47 91.9278 107.681 91.6153 107.833L95.5893 112.349Z" fill="#F58635"/>
<path d="M99.8949 112.349H96.5055V111.472H97.6297V104.644H96.5055V103.767H99.8949V104.644H98.7707V111.472H99.8949V112.349Z" fill="#F58635"/>
<path d="M108.309 109.71C108.316 110.098 108.233 110.483 108.068 110.834C107.914 111.149 107.691 111.425 107.416 111.641C107.101 111.889 106.74 112.073 106.353 112.18C105.872 112.3 105.377 112.355 104.881 112.343H101.837V103.767H104.366C104.836 103.76 105.305 103.783 105.772 103.838C106.083 103.881 106.385 103.976 106.665 104.119C106.952 104.259 107.191 104.481 107.351 104.756C107.499 105.044 107.573 105.363 107.565 105.686C107.576 106.058 107.467 106.423 107.253 106.726C107.037 107.02 106.752 107.257 106.424 107.415V107.462C106.955 107.553 107.438 107.823 107.795 108.227C108.144 108.64 108.328 109.169 108.309 109.71ZM106.39 105.844C106.396 105.663 106.36 105.483 106.286 105.318C106.214 105.171 106.097 105.05 105.951 104.973C105.749 104.862 105.524 104.796 105.294 104.779C105.038 104.754 104.732 104.742 104.338 104.742H102.978V107.221H104.453C104.736 107.225 105.018 107.206 105.297 107.164C105.506 107.129 105.705 107.051 105.884 106.937C106.056 106.832 106.19 106.676 106.266 106.49C106.349 106.285 106.391 106.065 106.39 105.844ZM107.121 109.755C107.134 109.472 107.081 109.191 106.966 108.932C106.837 108.704 106.641 108.522 106.404 108.412C106.194 108.309 105.966 108.246 105.732 108.227C105.414 108.193 105.094 108.178 104.774 108.182H102.981V111.374H104.49C104.901 111.38 105.311 111.354 105.718 111.298C105.997 111.261 106.264 111.165 106.502 111.017C106.7 110.889 106.862 110.713 106.974 110.505C107.083 110.271 107.133 110.013 107.121 109.755Z" fill="#F58635"/>
<path d="M75.6856 38.9565H74.2804L71.2591 35.0226H70.6549V38.9565H69.5307V35.0226H68.9124L65.894 38.9565H64.5674L67.985 34.5421C67.6657 34.3382 67.3913 34.0715 67.1784 33.7582C66.9664 33.4326 66.8035 33.0775 66.695 32.7045C66.6219 32.4684 66.5488 32.2689 66.4786 32.1003C66.4124 31.9466 66.317 31.8073 66.1975 31.6901C66.0882 31.5821 65.9526 31.5046 65.8041 31.4653C65.6135 31.4141 65.4167 31.3904 65.2195 31.395H64.8738V30.375H65.2813C65.799 30.3427 66.3141 30.4702 66.7568 30.7403C67.1752 31.0978 67.4767 31.5725 67.6224 32.1031C67.6646 32.2184 67.7152 32.3617 67.7714 32.5302C67.8276 32.6988 67.8866 32.8534 67.9456 32.9911C68.0785 33.3475 68.3094 33.6592 68.6117 33.8902C68.8778 34.0839 69.1916 34.2014 69.5195 34.2303V30.375H70.6436V34.2415C70.9827 34.2234 71.3103 34.1126 71.5908 33.9212C71.9047 33.6848 72.1422 33.3614 72.2737 32.9911C72.344 32.8225 72.4058 32.6567 72.462 32.4937C72.5182 32.3308 72.5632 32.2127 72.5969 32.1031C72.7419 31.573 73.0436 31.099 73.4625 30.7431C73.9042 30.4726 74.4182 30.3441 74.9352 30.375H75.3455V31.395H74.9999C74.799 31.3886 74.5983 31.4113 74.404 31.4625C74.2572 31.5053 74.123 31.5834 74.0134 31.6901C73.8906 31.8066 73.7946 31.9485 73.7323 32.106C73.6621 32.283 73.589 32.4797 73.5159 32.7045C73.4016 33.1285 73.1963 33.5225 72.9145 33.8593C72.7022 34.0938 72.4604 34.2997 72.195 34.4719L75.6856 38.9565Z" fill="#F58635"/>
<path d="M83.4256 31.3614C83.7885 31.7687 84.0623 32.2472 84.2294 32.7664C84.4243 33.3794 84.5192 34.0198 84.5105 34.663C84.522 35.3074 84.4271 35.9492 84.2294 36.5626C84.0647 37.0816 83.7928 37.5602 83.4312 37.9675C83.0849 38.3505 82.6564 38.6503 82.1778 38.8442C81.1141 39.2377 79.9448 39.2377 78.8811 38.8442C78.4006 38.6533 77.97 38.3554 77.622 37.9731C77.2602 37.5661 76.9882 37.0874 76.8238 36.5682C76.4509 35.336 76.4509 34.021 76.8238 32.7888C76.9911 32.2632 77.2658 31.7781 77.6305 31.3642C77.9769 30.9815 78.4081 30.6851 78.8895 30.4988C79.9522 30.0997 81.1236 30.0997 82.1862 30.4988C82.6578 30.6917 83.0809 30.9862 83.4256 31.3614ZM83.3216 34.6687C83.3216 33.5559 83.0724 32.6961 82.5741 32.0892C82.3143 31.8031 81.9976 31.5746 81.6443 31.4182C81.291 31.2618 80.9088 31.181 80.5224 31.181C80.136 31.181 79.7539 31.2618 79.4006 31.4182C79.0472 31.5746 78.7305 31.8031 78.4708 32.0892C77.9743 32.6961 77.726 33.5559 77.726 34.6687C77.726 35.7926 77.9789 36.6553 78.4876 37.2538C78.7465 37.5364 79.0613 37.7621 79.4121 37.9165C79.7629 38.0709 80.142 38.1507 80.5252 38.1507C80.9085 38.1507 81.2876 38.0709 81.6384 37.9165C81.9892 37.7621 82.304 37.5364 82.5628 37.2538C83.0687 36.6553 83.3216 35.7954 83.3216 34.6687Z" fill="#F58635"/>
<path d="M92.7929 36.3182C92.8002 36.7068 92.7165 37.0918 92.5484 37.4422C92.3971 37.7583 92.175 38.0353 91.8991 38.2515C91.5837 38.5007 91.2215 38.6841 90.834 38.791C90.3527 38.9113 89.8573 38.9662 89.3613 38.9539H86.3204V30.3753H88.8498C89.3193 30.366 89.7888 30.3895 90.255 30.4455C90.5666 30.4885 90.8687 30.5835 91.1488 30.7265C91.4359 30.8659 91.6747 31.0881 91.8345 31.3644C91.9838 31.6511 92.0573 31.9713 92.0481 32.2944C92.0591 32.6656 91.9497 33.0303 91.7361 33.3341C91.521 33.6287 91.2361 33.8652 90.907 34.0225V34.0703C91.4382 34.1607 91.9223 34.4305 92.2786 34.8346C92.6278 35.2484 92.8111 35.7771 92.7929 36.3182ZM90.8733 32.449C90.8779 32.2692 90.8424 32.0907 90.7693 31.9263C90.6956 31.7798 90.5789 31.6592 90.4349 31.5807C90.2321 31.4698 90.0078 31.4037 89.7773 31.3868C89.5187 31.3615 89.2011 31.3503 88.8217 31.3503H87.4614V33.8287H88.9369C89.219 33.8328 89.501 33.8141 89.7801 33.7725C89.9892 33.7368 90.1889 33.6594 90.3674 33.5448C90.54 33.4405 90.6748 33.2841 90.7525 33.0981C90.8338 32.8914 90.8748 32.6711 90.8733 32.449ZM91.604 36.3632C91.6172 36.0805 91.5643 35.7986 91.4495 35.5399C91.3209 35.3122 91.1244 35.1305 90.8874 35.0201C90.6758 34.9217 90.4483 34.8617 90.2157 34.843C89.8962 34.8124 89.5754 34.7983 89.2545 34.8009H87.4614V37.9929H88.9707C89.3814 37.9988 89.7919 37.9734 90.1988 37.9171C90.4771 37.8799 90.7444 37.7842 90.9829 37.6361C91.1798 37.5056 91.3418 37.3291 91.4551 37.1219C91.5653 36.8847 91.6164 36.6244 91.604 36.3632Z" fill="#F58635"/>
<path d="M100.533 31.3896H97.4667V38.9567H96.3256V31.3896H93.2594V30.3752H100.533V31.3896Z" fill="#F58635"/>
<path d="M108.453 38.9567H107.236L106.393 36.5655H102.683L101.84 38.9567H100.682L103.807 30.3752H105.328L108.453 38.9567ZM106.041 35.5848L104.538 31.37L103.029 35.5848H106.041Z" fill="#F58635"/>
<path d="M54.8039 12.7766C54.9079 12.9479 54.974 13.1395 54.9978 13.3385C55.0215 13.5205 55.0013 13.7055 54.9388 13.878C54.8687 14.0739 54.7597 14.2536 54.6184 14.4063C54.4559 14.5712 54.2715 14.713 54.0704 14.8278L52.3841 15.845L50.1779 12.164L53.039 10.45L53.4661 11.1637L51.5494 12.3101L51.9457 12.9704L52.7129 12.5096C52.922 12.3789 53.1444 12.2705 53.3762 12.1865C53.5571 12.1263 53.7493 12.108 53.9383 12.1331C54.121 12.1551 54.2941 12.227 54.4386 12.341C54.5857 12.463 54.7094 12.6105 54.8039 12.7766ZM53.8399 13.3919C53.8056 13.3336 53.7641 13.2798 53.7163 13.2318C53.6671 13.1832 53.606 13.1483 53.5392 13.1306C53.4579 13.1112 53.3732 13.1112 53.2919 13.1306C53.1695 13.1629 53.0529 13.2141 52.9462 13.2823L52.3448 13.6448L52.9069 14.5805L53.5111 14.2181C53.6065 14.1633 53.6927 14.0941 53.7669 14.0129C53.8255 13.9508 53.8705 13.8771 53.899 13.7966C53.9186 13.7301 53.9243 13.6602 53.9158 13.5914C53.9077 13.5213 53.8858 13.4535 53.8512 13.3919H53.8399Z" fill="#F58635"/>
<path d="M59.6463 11.855L58.6571 12.3636L57.1029 9.27273L56.004 9.83471C56.0799 10.0089 56.1417 10.1438 56.1839 10.2421L56.3525 10.6355C56.4838 10.9365 56.5965 11.2452 56.6897 11.56C56.7545 11.7759 56.8015 11.9968 56.8303 12.2203C56.8483 12.3772 56.8483 12.5356 56.8303 12.6924C56.8167 12.8071 56.7913 12.9201 56.7544 13.0296C56.7069 13.1602 56.6333 13.2797 56.538 13.3808C56.4354 13.4959 56.3125 13.5912 56.1754 13.6618C56.0911 13.704 55.9984 13.7461 55.8944 13.7855C55.7904 13.8248 55.7398 13.8501 55.7117 13.8585L55.2789 13.0015L55.3154 12.9818L55.3716 12.9621L55.4419 12.9312C55.5134 12.896 55.5812 12.8536 55.6442 12.8048C55.6848 12.7706 55.7165 12.7272 55.737 12.6783C55.812 12.4569 55.812 12.217 55.737 11.9955C55.6209 11.619 55.481 11.2501 55.3182 10.8912C55.2367 10.7086 55.1496 10.5091 55.0372 10.2955C54.9248 10.082 54.8208 9.84033 54.6915 9.56496L57.6959 8.05322L59.6463 11.855Z" fill="#F58635"/>
<path d="M64.2414 9.92182L63.1847 10.3574L62.5776 9.67173L61.1106 10.2787L61.1668 11.1947L60.1438 11.619L59.9695 7.05008L61.1443 6.56396L64.2414 9.92182ZM62.0324 9.04512L60.956 7.82843L61.0572 9.44975L62.0324 9.04512Z" fill="#F58635"/>
<path d="M66.5797 5.47648L64.6995 6.12275L65.8237 9.3935L64.7782 9.75317L63.373 5.69846L66.3015 4.6897L66.5797 5.47648Z" fill="#F58635"/>
<path d="M71.751 5.4231C71.843 5.70588 71.8775 6.00421 71.8524 6.30052C71.8273 6.59683 71.7431 6.88511 71.6048 7.14839C71.2698 7.64136 70.7689 7.99764 70.1932 8.15236C69.6176 8.30709 69.0054 8.24995 68.4684 7.99137C67.9833 7.64568 67.6338 7.14188 67.4799 6.56653C67.3261 5.99119 67.3774 5.38023 67.6252 4.83864C67.9614 4.34704 68.4623 3.99185 69.0376 3.83726C69.6128 3.68266 70.2243 3.73885 70.7617 3.99566C71.0139 4.15515 71.2314 4.3637 71.4014 4.60892C71.5713 4.85414 71.6902 5.13102 71.751 5.4231ZM70.6268 6.85054C70.698 6.69025 70.7362 6.51729 70.7392 6.34195C70.7391 6.13099 70.7097 5.92107 70.6521 5.71814C70.5995 5.50137 70.5122 5.29451 70.3935 5.10558C70.3065 4.9634 70.1918 4.84013 70.0563 4.7431C69.9401 4.65955 69.8048 4.60642 69.6628 4.58856C69.5274 4.57127 69.3899 4.58081 69.2581 4.61665C69.1274 4.65162 69.0045 4.71071 68.8956 4.79087C68.7778 4.87731 68.6816 4.98983 68.6145 5.11963C68.5442 5.27316 68.5069 5.43971 68.5049 5.60856C68.497 5.83159 68.5245 6.05447 68.5864 6.26888C68.6372 6.48357 68.7227 6.68857 68.8393 6.87583C68.9271 7.01822 69.0417 7.14227 69.1766 7.24112C69.2924 7.32342 69.4265 7.37645 69.5673 7.39566C69.7053 7.41539 69.8458 7.40678 69.9804 7.37037C70.1158 7.33332 70.2428 7.27034 70.3542 7.18492C70.4673 7.09646 70.557 6.98166 70.6156 6.85054H70.6268Z" fill="#F58635"/>
<path d="M77.3803 7.52762L76.3798 7.71589L76.1943 6.73241L73.634 7.2101L73.8195 8.19357L72.8189 8.38183L72.4845 6.59192L72.8049 6.53291C72.943 5.9948 73.0147 5.44182 73.0185 4.8863C73.023 4.25652 72.9655 3.62783 72.847 3.00927L75.9948 2.41919L76.6299 5.81919L77.0459 5.74051L77.3803 7.52762ZM75.5423 6.0215L75.0589 3.43919L74.005 3.63588C74.0636 4.12253 74.0768 4.61357 74.0443 5.10266C74.0186 5.52015 73.9527 5.93418 73.8476 6.33902L75.5423 6.0215Z" fill="#F58635"/>
<path d="M80.1824 6.21272L77.6895 6.51619L77.5967 5.76032L78.2937 5.67602L77.9593 2.92792L77.2595 3.01222L77.1695 2.25916L79.6624 1.95288L79.7552 2.70875L79.0582 2.79305L79.3926 5.54115L80.0896 5.45685L80.1824 6.21272Z" fill="#F58635"/>
<path d="M84.9264 5.90076L83.8528 5.95977L83.687 3.09085L82.0654 6.05531L81.0114 6.11432L80.7669 1.832L81.8433 1.77019L81.9895 4.34969L83.4959 1.67465L84.6735 1.60721L84.9264 5.90076ZM84.1957 0.227539C84.2106 0.389485 84.1859 0.552626 84.1237 0.702905C84.0615 0.853183 83.9637 0.986094 83.8387 1.09019C83.5048 1.31025 83.1186 1.43811 82.7193 1.46081C82.32 1.48351 81.9218 1.40024 81.5651 1.21944C81.4285 1.13103 81.3156 1.01056 81.2362 0.86853C81.1569 0.726498 81.1135 0.567215 81.1098 0.404565L82.0766 0.348368C82.0763 0.511406 82.133 0.669428 82.2368 0.795144C82.3721 0.877786 82.5295 0.916973 82.6878 0.907427C82.8461 0.897881 82.9977 0.840061 83.1221 0.741754C83.2106 0.606446 83.2484 0.444223 83.2289 0.283737L84.1957 0.227539Z" fill="#F58635"/>
<path d="M89.7772 5.95133L88.6699 5.92885L88.7093 4.04059L87.0764 4.00686L87.0371 5.89513L85.9297 5.87265L86.0169 1.58472L87.1242 1.6072L87.0933 3.17794L88.7261 3.20885L88.757 1.64091L89.8644 1.66339L89.7772 5.95133Z" fill="#F58635"/>
<path d="M94.6899 6.3926L93.6163 6.28864L93.8974 3.445L91.8457 6.11442L90.7974 6.01045L91.2162 1.74219L92.287 1.84616L92.0369 4.41723L93.9367 2.00913L95.1087 2.12153L94.6899 6.3926Z" fill="#F58635"/>
<path d="M99.5267 7.21018L98.4672 7.02191L98.9618 4.21199L96.7135 6.71563L95.6764 6.53018L96.424 2.3153L97.4863 2.50356L97.0339 5.03249L99.1164 2.78456L100.277 2.98968L99.5267 7.21018ZM100.12 1.52009C100.098 1.68152 100.037 1.83512 99.9417 1.96741C99.8467 2.09969 99.7206 2.20661 99.5745 2.27877C99.2046 2.44056 98.7918 2.47611 98.3997 2.37993C97.9991 2.33458 97.6242 2.15999 97.3318 1.88257C97.2206 1.76392 97.1396 1.62031 97.0956 1.46382C97.0516 1.30734 97.0458 1.14257 97.0788 0.983398L98.0316 1.152C97.9937 1.30983 98.0126 1.47595 98.085 1.62125C98.134 1.68443 98.196 1.73641 98.2668 1.77373C98.3375 1.81104 98.4154 1.83282 98.4953 1.83761C98.5727 1.85929 98.6538 1.86499 98.7335 1.85436C98.8132 1.84373 98.8899 1.817 98.959 1.7758C99.0758 1.66304 99.1494 1.5129 99.167 1.3515L100.12 1.52009Z" fill="#F58635"/>
<path d="M107.514 5.81931C107.637 6.0036 107.715 6.21447 107.742 6.43468C107.767 6.67879 107.743 6.92559 107.669 7.15964C107.603 7.3947 107.488 7.6131 107.331 7.8003C107.183 7.97368 106.996 8.11026 106.786 8.19931C106.566 8.29151 106.331 8.34384 106.092 8.35386C105.808 8.36324 105.525 8.33489 105.249 8.26956L105.117 8.71915L104.06 8.40725L104.195 7.95766C103.932 7.86145 103.683 7.73208 103.453 7.5727C103.255 7.4345 103.085 7.26115 102.95 7.0613C102.826 6.87241 102.747 6.65832 102.717 6.43468C102.687 6.19191 102.71 5.94567 102.784 5.71254C102.848 5.47932 102.96 5.26205 103.113 5.07468C103.257 4.90751 103.436 4.77496 103.638 4.68691C103.86 4.59536 104.096 4.54672 104.335 4.54361C104.619 4.53729 104.902 4.5656 105.179 4.62791L105.305 4.20923L106.359 4.52113L106.235 4.93981C106.506 5.03249 106.762 5.16001 107 5.31914C107.202 5.45053 107.377 5.62048 107.514 5.81931ZM104.408 7.27204L104.99 5.3051C104.872 5.27587 104.749 5.27114 104.629 5.2912C104.509 5.31126 104.394 5.35568 104.291 5.42174C104.189 5.4878 104.101 5.57409 104.033 5.67532C103.965 5.77655 103.919 5.89057 103.897 6.01039C103.811 6.24722 103.804 6.5055 103.877 6.74658C103.981 6.98325 104.171 7.17131 104.408 7.27204ZM106.575 6.81683C106.655 6.58644 106.649 6.33508 106.558 6.10874C106.455 5.8888 106.271 5.71689 106.044 5.62824L105.465 7.59518C105.717 7.64509 105.978 7.59684 106.196 7.4603C106.387 7.29102 106.52 7.06586 106.575 6.81683Z" fill="#F58635"/>
<path d="M112.399 9.01988C112.304 9.30238 112.155 9.56335 111.959 9.78765C111.763 10.012 111.525 10.1951 111.258 10.3265C110.696 10.5243 110.081 10.5143 109.526 10.2983C108.971 10.0823 108.511 9.67464 108.231 9.14913C108.043 8.5835 108.058 7.97002 108.274 7.41448C108.49 6.85894 108.893 6.39618 109.414 6.10599C109.975 5.90816 110.589 5.91785 111.144 6.13331C111.698 6.34878 112.158 6.75576 112.438 7.28054C112.547 7.55853 112.6 7.85552 112.593 8.15417C112.587 8.45281 112.52 8.74712 112.399 9.01988ZM110.636 9.50037C110.79 9.41446 110.923 9.2966 111.027 9.15476C111.153 8.98306 111.254 8.7937 111.325 8.59277C111.411 8.38702 111.464 8.16888 111.482 7.94649C111.494 7.78033 111.474 7.61352 111.423 7.45475C111.377 7.31984 111.3 7.19761 111.199 7.09789C111.098 7.00401 110.981 6.93053 110.853 6.88153C110.727 6.83108 110.592 6.80624 110.457 6.80847C110.314 6.8113 110.175 6.8479 110.049 6.91525C109.9 6.99629 109.771 7.10843 109.67 7.24401C109.532 7.41959 109.423 7.61591 109.346 7.82567C109.261 8.02957 109.209 8.24588 109.192 8.46633C109.178 8.63233 109.197 8.79939 109.248 8.95806C109.293 9.09363 109.37 9.21617 109.473 9.31492C109.573 9.41178 109.691 9.48731 109.821 9.5369C109.951 9.58918 110.09 9.61313 110.229 9.60715C110.372 9.60554 110.511 9.56887 110.636 9.50037Z" fill="#F58635"/>
<path d="M115.791 12.9957L114.793 12.5181L115.608 10.8124L114.135 10.1156L113.318 11.8015L112.32 11.3238L114.178 7.45459L115.175 7.93509L114.495 9.34005L115.968 10.0481L116.648 8.64318L117.646 9.12087L115.791 12.9957Z" fill="#F58635"/>
<path d="M119.849 16.4296L118.967 15.921L119.467 15.0555L117.219 13.7517L116.71 14.6115L115.83 14.1029L116.738 12.5266L117.019 12.6896C117.476 12.3677 117.89 11.9902 118.253 11.5656C118.667 11.0901 119.033 10.5754 119.346 10.0286L122.117 11.6274L120.389 14.6228L120.757 14.8335L119.849 16.4296ZM119.444 14.0889L120.757 11.8129L119.829 11.279C119.558 11.6862 119.25 12.0672 118.908 12.417C118.615 12.7169 118.295 12.9888 117.952 13.2291L119.444 14.0889Z" fill="#F58635"/>
</svg>
