<svg aria-hidden="true" style="position: absolute; width: 0; height: 0; overflow: hidden;" version="1.1" xmlns="http://www.w3.org/2000/svg" xmlns:xlink="http://www.w3.org/1999/xlink">
<defs>
<symbol id="icon-uah" viewBox="0 0 32 32">
<path d="M16 0c-8.836 0-16 7.163-16 16s7.164 16 16 16 16-7.164 16-16-7.164-16-16-16zM16 30.4c-7.938 0-14.4-6.462-14.4-14.4s6.463-14.4 14.4-14.4 14.4 6.463 14.4 14.4-6.462 14.4-14.4 14.4z"></path>
<path d="M9.637 15.535c-0.011 0.001-0.024 0.001-0.037 0.001-0.302 0-0.547-0.245-0.547-0.547 0-0.013 0-0.026 0.001-0.039l-0 0.002v-0.159c-0.001-0.011-0.001-0.025-0.001-0.038 0-0.302 0.245-0.546 0.546-0.546 0.013 0 0.027 0.001 0.040 0.001l-0.002-0h12.726c0.011-0.001 0.025-0.001 0.038-0.001 0.302 0 0.546 0.245 0.546 0.546 0 0.013-0 0.027-0.001 0.040l0-0.002v0.159c0.001 0.011 0.001 0.024 0.001 0.037 0 0.302-0.245 0.547-0.547 0.547-0.013 0-0.026-0-0.039-0.001l0.002 0zM9.637 18.451c-0.011 0.001-0.024 0.001-0.037 0.001-0.302 0-0.547-0.245-0.547-0.547 0-0.013 0-0.026 0.001-0.039l-0 0.002v-0.159c-0.001-0.011-0.001-0.025-0.001-0.038 0-0.302 0.245-0.546 0.546-0.546 0.013 0 0.027 0 0.040 0.001l-0.002-0h12.726c0.011-0.001 0.025-0.001 0.038-0.001 0.302 0 0.546 0.245 0.546 0.546 0 0.013-0 0.027-0.001 0.040l0-0.002v0.159c0.001 0.011 0.001 0.024 0.001 0.037 0 0.302-0.245 0.547-0.547 0.547-0.013 0-0.026-0-0.039-0.001l0.002 0zM16.159 25.822q-1.804 0-3.182-0.597t-2.161-1.725q-0.783-1.125-0.783-2.744 0-1.326 0.597-2.294t1.736-1.67 2.731-1.233q1.616-0.583 2.757-1.113t1.75-1.207q0.609-0.676 0.61-1.736 0-1.643-1.021-2.412t-2.638-0.769q-1.938 0-3.182 0.862t-1.405 2.188c-0.018 0.212-0.098 0.354-0.239 0.424-0.099 0.058-0.216 0.096-0.341 0.106l-0.003 0h-0.531c-0.009 0.001-0.019 0.001-0.030 0.001-0.152 0-0.288-0.067-0.381-0.173l-0.001-0.001c-0.086-0.093-0.141-0.216-0.146-0.352l-0-0.001c0.009-0.578 0.152-1.12 0.397-1.601l-0.010 0.021q0.383-0.809 1.166-1.511t1.962-1.125q1.179-0.424 2.744-0.424 1.723 0 2.903 0.636t1.802 1.71q0.625 1.074 0.625 2.426 0 1.326-0.663 2.254t-1.834 1.589c-0.77 0.437-1.665 0.832-2.602 1.137l-0.105 0.029q-1.804 0.557-2.903 1.14t-1.591 1.313-0.491 1.79q0 1.59 1.14 2.532t3.313 0.941q1.723 0 2.813-0.491t1.631-1.219q0.543-0.729 0.676-1.472c0.035-0.143 0.101-0.268 0.189-0.373l-0.001 0.001q0.133-0.158 0.398-0.159h0.53c0.004-0 0.010-0 0.015-0 0.15 0 0.285 0.061 0.383 0.159v0c0.098 0.093 0.159 0.224 0.159 0.37 0 0 0 0.001 0 0.001v-0q0 1.219-0.795 2.307t-2.321 1.776-3.672 0.689z"></path>
</symbol>
</defs>
</svg>
