<svg aria-hidden="true" style="position: absolute; width: 0; height: 0; overflow: hidden;" version="1.1" xmlns="http://www.w3.org/2000/svg" xmlns:xlink="http://www.w3.org/1999/xlink">
<defs>
<symbol id="icon-logo" viewBox="0 0 40 32">
<path fill="#ffcc29" style="fill: var(--color1, #ffcc29)" d="M20.368 31.957c8.264 0 14.963-6.698 14.963-14.96s-6.699-14.96-14.963-14.96-14.963 6.698-14.963 14.96c0 8.262 6.699 14.96 14.963 14.96z"></path>
<path fill="#232222" style="fill: var(--color2, #232222)" d="M20.368 29.351c6.824 0 12.357-5.531 12.357-12.354s-5.532-12.354-12.357-12.354-12.357 5.531-12.357 12.354c0 6.823 5.532 12.354 12.357 12.354z"></path>
<path fill="#232222" style="fill: var(--color2, #232222)" d="M21.287 3.639l-0.078 0.788 0.788 0.078 0.078-0.788-0.788-0.078z"></path>
<path fill="#232222" style="fill: var(--color2, #232222)" d="M20.392 16.986c0.14 0 0.253-0.113 0.253-0.253s-0.113-0.253-0.253-0.253c-0.14 0-0.253 0.113-0.253 0.253s0.113 0.253 0.253 0.253z"></path>
<path fill="#232222" style="fill: var(--color2, #232222)" d="M22.589 3.791l-0.154 0.776 0.776 0.154 0.154-0.776-0.776-0.154z"></path>
<path fill="#232222" style="fill: var(--color2, #232222)" d="M20.417 16.99c0.14 0 0.253-0.113 0.253-0.253s-0.113-0.253-0.253-0.253c-0.14 0-0.253 0.113-0.253 0.253s0.113 0.253 0.253 0.253z"></path>
<path fill="#232222" style="fill: var(--color2, #232222)" d="M23.874 4.074l-0.23 0.757 0.757 0.23 0.23-0.757-0.757-0.23z"></path>
<path fill="#232222" style="fill: var(--color2, #232222)" d="M20.441 16.996c0.14 0 0.253-0.113 0.253-0.253s-0.113-0.253-0.253-0.253c-0.14 0-0.253 0.113-0.253 0.253s0.113 0.253 0.253 0.253z"></path>
<path fill="#232222" style="fill: var(--color2, #232222)" d="M25.12 4.478l-0.303 0.731 0.731 0.303 0.303-0.731-0.731-0.303z"></path>
<path fill="#232222" style="fill: var(--color2, #232222)" d="M20.464 17.004c0.14 0 0.253-0.113 0.253-0.253s-0.113-0.253-0.253-0.253c-0.14 0-0.253 0.113-0.253 0.253s0.113 0.253 0.253 0.253z"></path>
<path fill="#232222" style="fill: var(--color2, #232222)" d="M26.326 5.006l-0.373 0.698 0.698 0.373 0.373-0.698-0.698-0.373z"></path>
<path fill="#232222" style="fill: var(--color2, #232222)" d="M20.487 17.015c0.14 0 0.253-0.113 0.253-0.253s-0.113-0.253-0.253-0.253c-0.14 0-0.253 0.113-0.253 0.253s0.113 0.253 0.253 0.253z"></path>
<path fill="#232222" style="fill: var(--color2, #232222)" d="M27.47 5.645l-0.44 0.658 0.658 0.44 0.44-0.658-0.658-0.44z"></path>
<path fill="#232222" style="fill: var(--color2, #232222)" d="M20.508 17.027c0.14 0 0.253-0.113 0.253-0.253s-0.113-0.253-0.253-0.253c-0.14 0-0.253 0.113-0.253 0.253s0.113 0.253 0.253 0.253z"></path>
<path fill="#232222" style="fill: var(--color2, #232222)" d="M28.549 6.4l-0.502 0.612 0.612 0.502 0.502-0.612-0.612-0.502z"></path>
<path fill="#232222" style="fill: var(--color2, #232222)" d="M20.528 17.042c0.14 0 0.253-0.113 0.253-0.253s-0.113-0.253-0.253-0.253c-0.14 0-0.253 0.113-0.253 0.253s0.113 0.253 0.253 0.253z"></path>
<path fill="#232222" style="fill: var(--color2, #232222)" d="M29.546 7.249l-0.56 0.56 0.56 0.56 0.56-0.56-0.56-0.56z"></path>
<path fill="#232222" style="fill: var(--color2, #232222)" d="M20.546 17.058c0.14 0 0.253-0.113 0.253-0.253s-0.113-0.253-0.253-0.253c-0.14 0-0.253 0.113-0.253 0.253s0.113 0.253 0.253 0.253z"></path>
<path fill="#232222" style="fill: var(--color2, #232222)" d="M30.458 8.199l-0.612 0.502 0.502 0.612 0.612-0.502-0.502-0.612z"></path>
<path fill="#232222" style="fill: var(--color2, #232222)" d="M20.563 17.077c0.14 0 0.253-0.113 0.253-0.253s-0.113-0.253-0.253-0.253c-0.14 0-0.253 0.113-0.253 0.253s0.113 0.253 0.253 0.253z"></path>
<path fill="#232222" style="fill: var(--color2, #232222)" d="M31.27 9.226l-0.658 0.44 0.44 0.658 0.658-0.44-0.44-0.658z"></path>
<path fill="#232222" style="fill: var(--color2, #232222)" d="M20.578 17.097c0.14 0 0.253-0.113 0.253-0.253s-0.113-0.253-0.253-0.253c-0.14 0-0.253 0.113-0.253 0.253s0.113 0.253 0.253 0.253z"></path>
<path fill="#232222" style="fill: var(--color2, #232222)" d="M31.978 10.335l-0.698 0.373 0.373 0.698 0.698-0.373-0.373-0.698z"></path>
<path fill="#232222" style="fill: var(--color2, #232222)" d="M20.59 17.119c0.14 0 0.253-0.113 0.253-0.253s-0.113-0.253-0.253-0.253c-0.14 0-0.253 0.113-0.253 0.253s0.113 0.253 0.253 0.253z"></path>
<path fill="#232222" style="fill: var(--color2, #232222)" d="M32.574 11.501l-0.731 0.303 0.303 0.731 0.731-0.303-0.303-0.731z"></path>
<path fill="#232222" style="fill: var(--color2, #232222)" d="M20.601 17.141c0.14 0 0.253-0.113 0.253-0.253s-0.113-0.253-0.253-0.253c-0.14 0-0.253 0.113-0.253 0.253s0.113 0.253 0.253 0.253z"></path>
<path fill="#232222" style="fill: var(--color2, #232222)" d="M33.054 12.72l-0.757 0.23 0.23 0.757 0.757-0.23-0.23-0.757z"></path>
<path fill="#232222" style="fill: var(--color2, #232222)" d="M20.61 17.164c0.14 0 0.253-0.113 0.253-0.253s-0.113-0.253-0.253-0.253c-0.14 0-0.253 0.113-0.253 0.253s0.113 0.253 0.253 0.253z"></path>
<path fill="#232222" style="fill: var(--color2, #232222)" d="M33.41 13.988l-0.776 0.154 0.155 0.776 0.776-0.154-0.154-0.776z"></path>
<path fill="#232222" style="fill: var(--color2, #232222)" d="M20.616 17.188c0.14 0 0.253-0.113 0.253-0.253s-0.113-0.253-0.253-0.253c-0.14 0-0.253 0.113-0.253 0.253s0.113 0.253 0.253 0.253z"></path>
<path fill="#232222" style="fill: var(--color2, #232222)" d="M33.638 15.284l-0.788 0.078 0.078 0.788 0.788-0.078-0.077-0.788z"></path>
<path fill="#232222" style="fill: var(--color2, #232222)" d="M20.619 17.213c0.14 0 0.253-0.113 0.253-0.253s-0.113-0.253-0.253-0.253c-0.14 0-0.253 0.113-0.253 0.253s0.113 0.253 0.253 0.253z"></path>
<path fill="#232222" style="fill: var(--color2, #232222)" d="M33.744 16.589h-0.792v0.791h0.792v-0.791z"></path>
<path fill="#232222" style="fill: var(--color2, #232222)" d="M20.62 17.238c0.14 0 0.253-0.113 0.253-0.253s-0.113-0.253-0.253-0.253c-0.14 0-0.253 0.113-0.253 0.253s0.113 0.253 0.253 0.253z"></path>
<path fill="#232222" style="fill: var(--color2, #232222)" d="M32.934 17.828l-0.078 0.788 0.788 0.078 0.078-0.788-0.788-0.078z"></path>
<path fill="#232222" style="fill: var(--color2, #232222)" d="M20.619 17.262c0.14 0 0.253-0.113 0.253-0.253s-0.113-0.253-0.253-0.253c-0.14 0-0.253 0.113-0.253 0.253s0.113 0.253 0.253 0.253z"></path>
<path fill="#232222" style="fill: var(--color2, #232222)" d="M32.788 19.052l-0.155 0.776 0.776 0.154 0.154-0.776-0.776-0.154z"></path>
<path fill="#232222" style="fill: var(--color2, #232222)" d="M20.616 17.287c0.14 0 0.253-0.113 0.253-0.253s-0.113-0.253-0.253-0.253c-0.14 0-0.253 0.113-0.253 0.253s0.113 0.253 0.253 0.253z"></path>
<path fill="#232222" style="fill: var(--color2, #232222)" d="M32.528 20.262l-0.23 0.757 0.758 0.23 0.23-0.757-0.757-0.23z"></path>
<path fill="#232222" style="fill: var(--color2, #232222)" d="M20.61 17.311c0.14 0 0.253-0.113 0.253-0.253s-0.113-0.253-0.253-0.253c-0.14 0-0.253 0.113-0.253 0.253s0.113 0.253 0.253 0.253z"></path>
<path fill="#232222" style="fill: var(--color2, #232222)" d="M32.145 21.434l-0.303 0.731 0.731 0.303 0.303-0.731-0.731-0.303z"></path>
<path fill="#232222" style="fill: var(--color2, #232222)" d="M20.601 17.334c0.14 0 0.253-0.113 0.253-0.253s-0.113-0.253-0.253-0.253c-0.14 0-0.253 0.113-0.253 0.253s0.113 0.253 0.253 0.253z"></path>
<path fill="#232222" style="fill: var(--color2, #232222)" d="M31.655 22.572l-0.373 0.698 0.698 0.373 0.373-0.698-0.698-0.373z"></path>
<path fill="#232222" style="fill: var(--color2, #232222)" d="M20.59 17.357c0.14 0 0.253-0.113 0.253-0.253s-0.113-0.253-0.253-0.253c-0.14 0-0.253 0.113-0.253 0.253s0.113 0.253 0.253 0.253z"></path>
<path fill="#232222" style="fill: var(--color2, #232222)" d="M31.052 23.646l-0.44 0.658 0.658 0.44 0.44-0.658-0.658-0.44z"></path>
<path fill="#232222" style="fill: var(--color2, #232222)" d="M20.578 17.378c0.14 0 0.253-0.113 0.253-0.253s-0.113-0.253-0.253-0.253c-0.14 0-0.253 0.113-0.253 0.253s0.113 0.253 0.253 0.253z"></path>
<path fill="#232222" style="fill: var(--color2, #232222)" d="M30.347 24.666l-0.502 0.612 0.612 0.502 0.502-0.612-0.612-0.502z"></path>
<path fill="#232222" style="fill: var(--color2, #232222)" d="M20.563 17.398c0.14 0 0.253-0.113 0.253-0.253s-0.113-0.253-0.253-0.253c-0.14 0-0.253 0.113-0.253 0.253s0.113 0.253 0.253 0.253z"></path>
<path fill="#232222" style="fill: var(--color2, #232222)" d="M29.546 25.603l-0.56 0.56 0.56 0.56 0.56-0.56-0.56-0.56z"></path>
<path fill="#232222" style="fill: var(--color2, #232222)" d="M20.546 17.416c0.14 0 0.253-0.113 0.253-0.253s-0.113-0.253-0.253-0.253c-0.14 0-0.253 0.113-0.253 0.253s0.113 0.253 0.253 0.253z"></path>
<path fill="#232222" style="fill: var(--color2, #232222)" d="M28.657 26.465l-0.612 0.502 0.502 0.612 0.612-0.502-0.502-0.612z"></path>
<path fill="#232222" style="fill: var(--color2, #232222)" d="M20.528 17.433c0.14 0 0.253-0.113 0.253-0.253s-0.113-0.253-0.253-0.253c-0.14 0-0.253 0.113-0.253 0.253s0.113 0.253 0.253 0.253z"></path>
<path fill="#232222" style="fill: var(--color2, #232222)" d="M27.688 27.227l-0.658 0.44 0.44 0.658 0.658-0.44-0.44-0.658z"></path>
<path fill="#232222" style="fill: var(--color2, #232222)" d="M20.508 17.448c0.14 0 0.253-0.113 0.253-0.253s-0.113-0.253-0.253-0.253c-0.14 0-0.253 0.113-0.253 0.253s0.113 0.253 0.253 0.253z"></path>
<path fill="#232222" style="fill: var(--color2, #232222)" d="M26.648 27.899l-0.698 0.373 0.373 0.698 0.698-0.373-0.373-0.698z"></path>
<path fill="#232222" style="fill: var(--color2, #232222)" d="M20.487 17.46c0.14 0 0.253-0.113 0.253-0.253s-0.113-0.253-0.253-0.253c-0.14 0-0.253 0.113-0.253 0.253s0.113 0.253 0.253 0.253z"></path>
<path fill="#232222" style="fill: var(--color2, #232222)" d="M25.549 28.458l-0.731 0.303 0.303 0.731 0.731-0.303-0.303-0.731z"></path>
<path fill="#232222" style="fill: var(--color2, #232222)" d="M20.464 17.471c0.14 0 0.253-0.113 0.253-0.253s-0.113-0.253-0.253-0.253c-0.14 0-0.253 0.113-0.253 0.253s0.113 0.253 0.253 0.253z"></path>
<path fill="#232222" style="fill: var(--color2, #232222)" d="M24.397 28.914l-0.757 0.23 0.23 0.757 0.757-0.23-0.23-0.757z"></path>
<path fill="#232222" style="fill: var(--color2, #232222)" d="M20.441 17.48c0.14 0 0.253-0.113 0.253-0.253s-0.113-0.253-0.253-0.253c-0.14 0-0.253 0.113-0.253 0.253s0.113 0.253 0.253 0.253z"></path>
<path fill="#232222" style="fill: var(--color2, #232222)" d="M23.211 29.248l-0.776 0.154 0.154 0.776 0.776-0.155-0.154-0.776z"></path>
<path fill="#232222" style="fill: var(--color2, #232222)" d="M20.417 17.486c0.14 0 0.253-0.113 0.253-0.253s-0.113-0.253-0.253-0.253c-0.14 0-0.253 0.113-0.253 0.253s0.113 0.253 0.253 0.253z"></path>
<path fill="#232222" style="fill: var(--color2, #232222)" d="M21.991 29.471l-0.788 0.077 0.078 0.788 0.788-0.078-0.078-0.788z"></path>
<path fill="#232222" style="fill: var(--color2, #232222)" d="M20.392 17.489c0.14 0 0.253-0.113 0.253-0.253s-0.113-0.253-0.253-0.253c-0.14 0-0.253 0.113-0.253 0.253s0.113 0.253 0.253 0.253z"></path>
<path fill="#232222" style="fill: var(--color2, #232222)" d="M20.763 29.568h-0.792v0.792h0.792v-0.792z"></path>
<path fill="#232222" style="fill: var(--color2, #232222)" d="M20.368 17.49c0.14 0 0.253-0.113 0.253-0.253s-0.113-0.253-0.253-0.253c-0.14 0-0.253 0.113-0.253 0.253s0.113 0.253 0.253 0.253z"></path>
<path fill="#232222" style="fill: var(--color2, #232222)" d="M18.742 29.472l-0.078 0.788 0.788 0.078 0.078-0.788-0.788-0.078z"></path>
<path fill="#232222" style="fill: var(--color2, #232222)" d="M20.343 17.489c0.14 0 0.253-0.113 0.253-0.253s-0.113-0.253-0.253-0.253c-0.14 0-0.253 0.113-0.253 0.253s0.113 0.253 0.253 0.253z"></path>
<path fill="#232222" style="fill: var(--color2, #232222)" d="M17.524 29.248l-0.154 0.776 0.776 0.154 0.154-0.776-0.776-0.155z"></path>
<path fill="#232222" style="fill: var(--color2, #232222)" d="M20.318 17.486c0.14 0 0.253-0.113 0.253-0.253s-0.113-0.253-0.253-0.253c-0.14 0-0.253 0.113-0.253 0.253s0.113 0.253 0.253 0.253z"></path>
<path fill="#232222" style="fill: var(--color2, #232222)" d="M16.336 28.914l-0.23 0.757 0.757 0.23 0.23-0.757-0.757-0.23z"></path>
<path fill="#232222" style="fill: var(--color2, #232222)" d="M20.294 17.48c0.14 0 0.253-0.113 0.253-0.253s-0.113-0.253-0.253-0.253c-0.14 0-0.253 0.113-0.253 0.253s0.113 0.253 0.253 0.253z"></path>
<path fill="#232222" style="fill: var(--color2, #232222)" d="M15.185 28.458l-0.303 0.731 0.731 0.303 0.303-0.731-0.731-0.303z"></path>
<path fill="#232222" style="fill: var(--color2, #232222)" d="M20.271 17.471c0.14 0 0.253-0.113 0.253-0.253s-0.113-0.253-0.253-0.253c-0.14 0-0.253 0.113-0.253 0.253s0.113 0.253 0.253 0.253z"></path>
<path fill="#232222" style="fill: var(--color2, #232222)" d="M14.086 27.892l-0.373 0.698 0.698 0.373 0.373-0.698-0.698-0.373z"></path>
<path fill="#232222" style="fill: var(--color2, #232222)" d="M20.249 17.46c0.14 0 0.253-0.113 0.253-0.253s-0.113-0.253-0.253-0.253c-0.14 0-0.253 0.113-0.253 0.253s0.113 0.253 0.253 0.253z"></path>
<path fill="#232222" style="fill: var(--color2, #232222)" d="M13.047 27.228l-0.44 0.658 0.658 0.44 0.44-0.658-0.658-0.44z"></path>
<path fill="#232222" style="fill: var(--color2, #232222)" d="M20.227 17.448c0.14 0 0.253-0.113 0.253-0.253s-0.113-0.253-0.253-0.253c-0.14 0-0.253 0.113-0.253 0.253s0.113 0.253 0.253 0.253z"></path>
<path fill="#232222" style="fill: var(--color2, #232222)" d="M12.077 26.464l-0.502 0.612 0.612 0.502 0.502-0.612-0.612-0.502z"></path>
<path fill="#232222" style="fill: var(--color2, #232222)" d="M20.207 17.433c0.14 0 0.253-0.113 0.253-0.253s-0.113-0.253-0.253-0.253c-0.14 0-0.253 0.113-0.253 0.253s0.113 0.253 0.253 0.253z"></path>
<path fill="#232222" style="fill: var(--color2, #232222)" d="M11.188 25.602l-0.56 0.56 0.56 0.56 0.56-0.56-0.56-0.56z"></path>
<path fill="#232222" style="fill: var(--color2, #232222)" d="M20.189 17.416c0.14 0 0.253-0.113 0.253-0.253s-0.113-0.253-0.253-0.253c-0.14 0-0.253 0.113-0.253 0.253s0.113 0.253 0.253 0.253z"></path>
<path fill="#232222" style="fill: var(--color2, #232222)" d="M10.39 24.658l-0.612 0.502 0.502 0.612 0.612-0.502-0.502-0.612z"></path>
<path fill="#232222" style="fill: var(--color2, #232222)" d="M20.172 17.398c0.14 0 0.253-0.113 0.253-0.253s-0.113-0.253-0.253-0.253c-0.14 0-0.253 0.113-0.253 0.253s0.113 0.253 0.253 0.253z"></path>
<path fill="#232222" style="fill: var(--color2, #232222)" d="M9.81 23.526l-0.657 0.443 0.443 0.657 0.657-0.443-0.443-0.657z"></path>
<path fill="#232222" style="fill: var(--color2, #232222)" d="M20.157 17.378c0.14 0 0.253-0.113 0.253-0.253s-0.113-0.253-0.253-0.253c-0.14 0-0.253 0.113-0.253 0.253s0.113 0.253 0.253 0.253z"></path>
<path fill="#232222" style="fill: var(--color2, #232222)" d="M9.081 22.57l-0.698 0.373 0.373 0.698 0.698-0.373-0.373-0.698z"></path>
<path fill="#232222" style="fill: var(--color2, #232222)" d="M20.145 17.357c0.14 0 0.253-0.113 0.253-0.253s-0.113-0.253-0.253-0.253c-0.14 0-0.253 0.113-0.253 0.253s0.113 0.253 0.253 0.253z"></path>
<path fill="#232222" style="fill: var(--color2, #232222)" d="M8.589 21.435l-0.731 0.303 0.303 0.731 0.731-0.303-0.303-0.731z"></path>
<path fill="#232222" style="fill: var(--color2, #232222)" d="M20.134 17.334c0.14 0 0.253-0.113 0.253-0.253s-0.113-0.253-0.253-0.253c-0.14 0-0.253 0.113-0.253 0.253s0.113 0.253 0.253 0.253z"></path>
<path fill="#232222" style="fill: var(--color2, #232222)" d="M8.207 20.261l-0.758 0.23 0.23 0.757 0.757-0.23-0.23-0.757z"></path>
<path fill="#232222" style="fill: var(--color2, #232222)" d="M20.126 17.311c0.14 0 0.253-0.113 0.253-0.253s-0.113-0.253-0.253-0.253c-0.14 0-0.253 0.113-0.253 0.253s0.113 0.253 0.253 0.253z"></path>
<path fill="#232222" style="fill: var(--color2, #232222)" d="M7.947 19.052l-0.776 0.154 0.154 0.776 0.776-0.154-0.154-0.776z"></path>
<path fill="#232222" style="fill: var(--color2, #232222)" d="M20.12 17.287c0.14 0 0.253-0.113 0.253-0.253s-0.113-0.253-0.253-0.253c-0.14 0-0.253 0.113-0.253 0.253s0.113 0.253 0.253 0.253z"></path>
<path fill="#232222" style="fill: var(--color2, #232222)" d="M7.802 17.826l-0.788 0.078 0.077 0.788 0.788-0.078-0.078-0.788z"></path>
<path fill="#232222" style="fill: var(--color2, #232222)" d="M20.116 17.262c0.14 0 0.253-0.113 0.253-0.253s-0.113-0.253-0.253-0.253c-0.14 0-0.253 0.113-0.253 0.253s0.113 0.253 0.253 0.253z"></path>
<path fill="#232222" style="fill: var(--color2, #232222)" d="M7.783 16.589h-0.792v0.791h0.792v-0.791z"></path>
<path fill="#232222" style="fill: var(--color2, #232222)" d="M20.115 17.238c0.14 0 0.253-0.113 0.253-0.253s-0.113-0.253-0.253-0.253c-0.14 0-0.253 0.113-0.253 0.253s0.113 0.253 0.253 0.253z"></path>
<path fill="#232222" style="fill: var(--color2, #232222)" d="M7.093 15.278l-0.077 0.788 0.788 0.078 0.077-0.788-0.788-0.078z"></path>
<path fill="#232222" style="fill: var(--color2, #232222)" d="M20.116 17.213c0.14 0 0.253-0.113 0.253-0.253s-0.113-0.253-0.253-0.253c-0.14 0-0.253 0.113-0.253 0.253s0.113 0.253 0.253 0.253z"></path>
<path fill="#232222" style="fill: var(--color2, #232222)" d="M7.326 13.988l-0.154 0.776 0.776 0.154 0.154-0.776-0.776-0.154z"></path>
<path fill="#232222" style="fill: var(--color2, #232222)" d="M20.12 17.188c0.14 0 0.253-0.113 0.253-0.253s-0.113-0.253-0.253-0.253c-0.14 0-0.253 0.113-0.253 0.253s0.113 0.253 0.253 0.253z"></path>
<path fill="#232222" style="fill: var(--color2, #232222)" d="M7.683 12.726l-0.23 0.757 0.757 0.23 0.23-0.757-0.757-0.23z"></path>
<path fill="#232222" style="fill: var(--color2, #232222)" d="M20.126 17.164c0.14 0 0.253-0.113 0.253-0.253s-0.113-0.253-0.253-0.253c-0.14 0-0.253 0.113-0.253 0.253s0.113 0.253 0.253 0.253z"></path>
<path fill="#232222" style="fill: var(--color2, #232222)" d="M8.16 11.501l-0.303 0.731 0.731 0.303 0.303-0.731-0.731-0.303z"></path>
<path fill="#232222" style="fill: var(--color2, #232222)" d="M20.134 17.141c0.14 0 0.253-0.113 0.253-0.253s-0.113-0.253-0.253-0.253c-0.14 0-0.253 0.113-0.253 0.253s0.113 0.253 0.253 0.253z"></path>
<path fill="#232222" style="fill: var(--color2, #232222)" d="M8.757 10.334l-0.373 0.698 0.698 0.373 0.373-0.698-0.698-0.373z"></path>
<path fill="#232222" style="fill: var(--color2, #232222)" d="M20.145 17.119c0.14 0 0.253-0.113 0.253-0.253s-0.113-0.253-0.253-0.253c-0.14 0-0.253 0.113-0.253 0.253s0.113 0.253 0.253 0.253z"></path>
<path fill="#232222" style="fill: var(--color2, #232222)" d="M9.465 9.226l-0.44 0.658 0.658 0.44 0.44-0.658-0.658-0.44z"></path>
<path fill="#232222" style="fill: var(--color2, #232222)" d="M20.157 17.097c0.14 0 0.253-0.113 0.253-0.253s-0.113-0.253-0.253-0.253c-0.14 0-0.253 0.113-0.253 0.253s0.113 0.253 0.253 0.253z"></path>
<path fill="#232222" style="fill: var(--color2, #232222)" d="M10.279 8.197l-0.502 0.612 0.612 0.502 0.502-0.612-0.612-0.502z"></path>
<path fill="#232222" style="fill: var(--color2, #232222)" d="M20.172 17.077c0.14 0 0.253-0.113 0.253-0.253s-0.113-0.253-0.253-0.253c-0.14 0-0.253 0.113-0.253 0.253s0.113 0.253 0.253 0.253z"></path>
<path fill="#232222" style="fill: var(--color2, #232222)" d="M11.189 7.249l-0.56 0.56 0.56 0.56 0.56-0.56-0.56-0.56z"></path>
<path fill="#232222" style="fill: var(--color2, #232222)" d="M20.189 17.058c0.14 0 0.253-0.113 0.253-0.253s-0.113-0.253-0.253-0.253c-0.14 0-0.253 0.113-0.253 0.253s0.113 0.253 0.253 0.253z"></path>
<path fill="#232222" style="fill: var(--color2, #232222)" d="M12.188 6.398l-0.612 0.502 0.502 0.612 0.612-0.502-0.502-0.612z"></path>
<path fill="#232222" style="fill: var(--color2, #232222)" d="M20.207 17.042c0.14 0 0.253-0.113 0.253-0.253s-0.113-0.253-0.253-0.253c-0.14 0-0.253 0.113-0.253 0.253s0.113 0.253 0.253 0.253z"></path>
<path fill="#232222" style="fill: var(--color2, #232222)" d="M13.265 5.645l-0.658 0.44 0.44 0.658 0.658-0.44-0.44-0.658z"></path>
<path fill="#232222" style="fill: var(--color2, #232222)" d="M20.227 17.027c0.14 0 0.253-0.113 0.253-0.253s-0.113-0.253-0.253-0.253c-0.14 0-0.253 0.113-0.253 0.253s0.113 0.253 0.253 0.253z"></path>
<path fill="#232222" style="fill: var(--color2, #232222)" d="M14.411 5.006l-0.698 0.373 0.373 0.698 0.698-0.373-0.373-0.698z"></path>
<path fill="#232222" style="fill: var(--color2, #232222)" d="M20.249 17.015c0.14 0 0.253-0.113 0.253-0.253s-0.113-0.253-0.253-0.253c-0.14 0-0.253 0.113-0.253 0.253s0.113 0.253 0.253 0.253z"></path>
<path fill="#232222" style="fill: var(--color2, #232222)" d="M15.614 4.478l-0.731 0.303 0.303 0.731 0.731-0.303-0.303-0.731z"></path>
<path fill="#232222" style="fill: var(--color2, #232222)" d="M20.271 17.004c0.14 0 0.253-0.113 0.253-0.253s-0.113-0.253-0.253-0.253c-0.14 0-0.253 0.113-0.253 0.253s0.113 0.253 0.253 0.253z"></path>
<path fill="#232222" style="fill: var(--color2, #232222)" d="M16.864 4.070l-0.757 0.23 0.23 0.757 0.757-0.23-0.23-0.757z"></path>
<path fill="#232222" style="fill: var(--color2, #232222)" d="M20.294 16.996c0.14 0 0.253-0.113 0.253-0.253s-0.113-0.253-0.253-0.253c-0.14 0-0.253 0.113-0.253 0.253s0.113 0.253 0.253 0.253z"></path>
<path fill="#232222" style="fill: var(--color2, #232222)" d="M18.146 3.791l-0.776 0.154 0.154 0.776 0.776-0.154-0.154-0.776z"></path>
<path fill="#232222" style="fill: var(--color2, #232222)" d="M20.318 16.99c0.14 0 0.253-0.113 0.253-0.253s-0.113-0.253-0.253-0.253c-0.14 0-0.253 0.113-0.253 0.253s0.113 0.253 0.253 0.253z"></path>
<path fill="#232222" style="fill: var(--color2, #232222)" d="M19.449 3.639l-0.788 0.078 0.078 0.788 0.788-0.077-0.078-0.788z"></path>
<path fill="#232222" style="fill: var(--color2, #232222)" d="M20.343 16.986c0.14 0 0.253-0.113 0.253-0.253s-0.113-0.253-0.253-0.253c-0.14 0-0.253 0.113-0.253 0.253s0.113 0.253 0.253 0.253z"></path>
<path fill="#232222" style="fill: var(--color2, #232222)" d="M20.763 3.611h-0.792v0.791h0.792v-0.791z"></path>
<path fill="#232222" style="fill: var(--color2, #232222)" d="M20.368 16.984c0.14 0 0.253-0.113 0.253-0.253s-0.113-0.253-0.253-0.253c-0.14 0-0.253 0.113-0.253 0.253s0.113 0.253 0.253 0.253z"></path>
<path fill="#ffcc29" style="fill: var(--color1, #ffcc29)" d="M38.941 10.344h-37.377c-0.653 0-1.183 0.53-1.183 1.183v10.488c0 0.653 0.53 1.183 1.183 1.183h37.377c0.653 0 1.183-0.53 1.183-1.183v-10.488c0-0.653-0.53-1.183-1.183-1.183z"></path>
<path fill="#232222" style="fill: var(--color2, #232222)" d="M38.941 10.674c0.226 0 0.443 0.090 0.603 0.25s0.25 0.376 0.25 0.602v10.49c-0 0.226-0.090 0.443-0.25 0.602s-0.376 0.25-0.603 0.25h-37.377c-0.226-0-0.443-0.090-0.603-0.25s-0.25-0.376-0.25-0.602v-10.49c0-0.226 0.090-0.443 0.25-0.602s0.377-0.25 0.603-0.25h37.377zM38.941 10.013h-37.377c-0.401 0-0.786 0.159-1.070 0.443s-0.443 0.669-0.443 1.070v10.49c0 0.401 0.159 0.786 0.443 1.070s0.669 0.443 1.070 0.443h37.377c0.402 0 0.787-0.159 1.070-0.443s0.444-0.669 0.444-1.070v-10.49c0-0.401-0.16-0.786-0.444-1.070s-0.669-0.443-1.070-0.443z"></path>
<path fill="#ffcc29" style="fill: var(--color1, #ffcc29)" d="M38.714 11.807h-36.922c-0.026 0-0.046 0.021-0.046 0.046v9.834c0 0.026 0.021 0.046 0.046 0.046h36.922c0.025 0 0.046-0.021 0.046-0.046v-9.834c0-0.026-0.021-0.046-0.046-0.046z"></path>
<path fill="#232222" style="fill: var(--color2, #232222)" d="M38.479 12.088v9.365h-36.452v-9.365h36.452zM38.714 11.527h-36.922c-0.043-0-0.085 0.008-0.125 0.025s-0.076 0.040-0.106 0.071c-0.030 0.030-0.055 0.066-0.071 0.106s-0.025 0.082-0.025 0.125v9.833c0 0.087 0.034 0.171 0.096 0.233s0.145 0.097 0.232 0.098h36.922c0.087-0.001 0.17-0.036 0.231-0.098s0.096-0.145 0.096-0.232v-9.833c0-0.087-0.034-0.17-0.096-0.231s-0.144-0.096-0.231-0.096z"></path>
<path fill="#232222" style="fill: var(--color2, #232222)" d="M8.353 14.083v4.52h0.489v1.461h-0.86v-0.711h-2.539v0.708h-0.86v-1.461h0.529c0.15-0.141 0.233-0.377 0.248-0.708l0.182-3.808h2.81zM5.952 18.599h1.537v-3.769h-1.141l-0.128 3.014c-0.025 0.333-0.115 0.584-0.269 0.755z"></path>
<path fill="#232222" style="fill: var(--color2, #232222)" d="M9.407 17.929v-2.426c0-0.477 0.134-0.846 0.403-1.107s0.654-0.392 1.157-0.391c0.503 0 0.888 0.13 1.157 0.391s0.403 0.63 0.403 1.107v2.426c0 0.477-0.134 0.846-0.403 1.107s-0.654 0.391-1.157 0.391c-0.502 0-0.887-0.13-1.157-0.391s-0.404-0.63-0.403-1.107zM11.668 17.966v-2.501c0-0.231-0.060-0.407-0.181-0.529s-0.294-0.182-0.52-0.181c-0.226 0-0.399 0.060-0.52 0.181s-0.181 0.297-0.181 0.529v2.501c0 0.231 0.060 0.407 0.181 0.529s0.294 0.182 0.52 0.18c0.226 0 0.399-0.060 0.52-0.18s0.181-0.297 0.181-0.529z"></path>
<path fill="#232222" style="fill: var(--color2, #232222)" d="M14.206 19.352h-0.86v-5.269h3.135v5.269h-0.86v-4.52h-1.415v4.52z"></path>
<path fill="#232222" style="fill: var(--color2, #232222)" d="M17.303 17.929v-2.426c0-0.477 0.134-0.846 0.403-1.107s0.654-0.392 1.157-0.391c0.502 0 0.887 0.13 1.156 0.391s0.403 0.63 0.403 1.107v2.426c0 0.477-0.134 0.846-0.403 1.107s-0.654 0.391-1.156 0.391c-0.503 0-0.888-0.13-1.157-0.391s-0.403-0.63-0.403-1.107zM19.563 17.966v-2.501c0-0.231-0.060-0.407-0.181-0.529s-0.294-0.182-0.52-0.181c-0.226 0-0.4 0.060-0.52 0.181s-0.181 0.297-0.181 0.529v2.501c0 0.231 0.060 0.407 0.181 0.529s0.294 0.182 0.52 0.18c0.226 0 0.399-0.060 0.52-0.18s0.181-0.297 0.181-0.529z"></path>
<path fill="#232222" style="fill: var(--color2, #232222)" d="M21.997 19.352h-0.753v-5.269h1.221l0.879 3.921 0.876-3.921h1.229v5.269h-0.821v-4.151l-0.957 4.151h-0.716l-0.957-4.151v4.151z"></path>
<path fill="#232222" style="fill: var(--color2, #232222)" d="M26.262 17.929v-2.426c0-0.477 0.134-0.846 0.403-1.107s0.654-0.392 1.157-0.391c0.502 0 0.887 0.13 1.156 0.391s0.404 0.63 0.404 1.107v2.426c0 0.477-0.135 0.846-0.404 1.107s-0.654 0.391-1.156 0.391c-0.503 0-0.888-0.13-1.157-0.391s-0.403-0.63-0.403-1.107zM28.522 17.966v-2.501c0-0.231-0.060-0.407-0.18-0.529s-0.294-0.182-0.52-0.181c-0.226 0-0.4 0.060-0.52 0.181s-0.181 0.297-0.181 0.529v2.501c0 0.231 0.060 0.407 0.181 0.529s0.294 0.182 0.52 0.18c0.226 0 0.399-0.060 0.52-0.18s0.181-0.297 0.18-0.529z"></path>
<path fill="#232222" style="fill: var(--color2, #232222)" d="M31.061 19.352h-0.86v-5.269h2.607v0.753h-1.747v4.516z"></path>
<path fill="#232222" style="fill: var(--color2, #232222)" d="M36.192 19.352h-0.88l-0.211-1.024h-1.396l-0.211 1.024h-0.814l1.168-5.269h1.16l1.183 5.269zM34.399 14.976l-0.535 2.606h1.077l-0.542-2.606z"></path>
<path fill="#f58635" style="fill: var(--color3, #f58635)" d="M16.933 24.416l-0.697 0.998 0.693 1.021h-0.311l-0.549-0.831-0.564 0.831h-0.293l0.704-1.009-0.688-1.010h0.311l0.544 0.82 0.556-0.82h0.293z"></path>
<path fill="#f58635" style="fill: var(--color3, #f58635)" d="M18.887 26.435h-0.286l-0.198-0.563h-0.873l-0.198 0.563h-0.27l0.735-2.019h0.358l0.733 2.019zM18.32 25.642l-0.354-0.992-0.355 0.992h0.71z"></path>
<path fill="#f58635" style="fill: var(--color3, #f58635)" d="M20.514 25.026c0.001 0.085-0.015 0.17-0.047 0.248-0.030 0.074-0.075 0.142-0.132 0.198-0.070 0.070-0.154 0.123-0.247 0.157-0.116 0.038-0.237 0.056-0.359 0.052h-0.268v0.752h-0.269v-2.019h0.548c0.103-0.002 0.206 0.009 0.307 0.031 0.080 0.018 0.156 0.051 0.224 0.096 0.074 0.049 0.135 0.115 0.179 0.192 0.045 0.090 0.067 0.191 0.064 0.292zM20.235 25.033c0.002-0.062-0.011-0.124-0.036-0.181-0.024-0.052-0.063-0.096-0.111-0.126-0.045-0.029-0.096-0.049-0.149-0.060-0.069-0.014-0.14-0.020-0.211-0.019h-0.265v0.808h0.226c0.089 0.002 0.178-0.008 0.265-0.029 0.062-0.016 0.119-0.048 0.165-0.092 0.040-0.039 0.070-0.086 0.090-0.138 0.019-0.052 0.028-0.107 0.026-0.163h-0.001z"></path>
<path fill="#f58635" style="fill: var(--color3, #f58635)" d="M22.492 26.435h-0.345l-0.821-0.921h-0.183v0.921h-0.268v-2.019h0.268v0.907c0.044-0 0.089-0.005 0.132-0.013 0.041-0.009 0.080-0.024 0.116-0.046 0.040-0.024 0.076-0.054 0.107-0.089 0.038-0.043 0.069-0.090 0.093-0.142 0.012-0.024 0.026-0.055 0.042-0.092s0.032-0.076 0.048-0.116c0.043-0.123 0.119-0.232 0.22-0.316 0.11-0.068 0.239-0.1 0.369-0.091h0.108v0.24h-0.113c-0.049-0.001-0.099 0.004-0.146 0.017-0.036 0.010-0.069 0.029-0.097 0.054-0.028 0.027-0.050 0.060-0.066 0.095-0.020 0.040-0.040 0.086-0.060 0.139-0.034 0.095-0.082 0.184-0.143 0.264-0.055 0.061-0.121 0.11-0.194 0.146l0.935 1.063z"></path>
<path fill="#f58635" style="fill: var(--color3, #f58635)" d="M23.505 26.435h-0.797v-0.206h0.265v-1.607h-0.265v-0.206h0.797v0.206h-0.265v1.607h0.265v0.206z"></path>
<path fill="#f58635" style="fill: var(--color3, #f58635)" d="M25.484 25.814c0.002 0.091-0.018 0.182-0.057 0.264-0.036 0.074-0.089 0.139-0.153 0.19-0.074 0.058-0.159 0.102-0.25 0.127-0.113 0.028-0.23 0.041-0.346 0.038h-0.716v-2.018h0.595c0.111-0.002 0.221 0.004 0.331 0.017 0.073 0.010 0.144 0.032 0.21 0.066 0.068 0.033 0.124 0.085 0.161 0.15 0.035 0.068 0.052 0.143 0.050 0.219 0.003 0.088-0.023 0.173-0.073 0.245-0.051 0.069-0.118 0.125-0.195 0.162v0.011c0.125 0.021 0.239 0.085 0.323 0.18 0.082 0.097 0.125 0.222 0.121 0.349zM25.033 24.904c0.001-0.043-0.007-0.085-0.024-0.124-0.017-0.035-0.044-0.063-0.079-0.081-0.048-0.026-0.1-0.042-0.155-0.046-0.060-0.006-0.132-0.009-0.225-0.009h-0.32v0.583h0.347c0.067 0.001 0.133-0.004 0.199-0.013 0.049-0.008 0.096-0.027 0.138-0.053 0.040-0.025 0.072-0.061 0.090-0.105 0.020-0.048 0.029-0.1 0.029-0.152zM25.205 25.825c0.003-0.067-0.009-0.133-0.036-0.194-0.030-0.054-0.076-0.096-0.132-0.122-0.049-0.024-0.103-0.039-0.158-0.044-0.075-0.008-0.15-0.012-0.225-0.011h-0.422v0.751h0.355c0.097 0.001 0.193-0.005 0.289-0.018 0.066-0.009 0.128-0.031 0.184-0.066 0.047-0.030 0.085-0.072 0.111-0.12 0.026-0.055 0.037-0.116 0.035-0.176z"></path>
<path fill="#f58635" style="fill: var(--color3, #f58635)" d="M17.808 9.166h-0.331l-0.711-0.926h-0.142v0.926h-0.265v-0.926h-0.145l-0.71 0.926h-0.312l0.804-1.039c-0.075-0.048-0.14-0.111-0.19-0.184-0.050-0.077-0.088-0.16-0.114-0.248-0.017-0.056-0.034-0.103-0.051-0.142-0.016-0.036-0.038-0.069-0.066-0.097-0.026-0.025-0.058-0.044-0.093-0.053-0.045-0.012-0.091-0.018-0.138-0.017h-0.081v-0.24h0.096c0.122-0.008 0.243 0.022 0.347 0.086 0.098 0.084 0.169 0.196 0.204 0.321 0.010 0.027 0.022 0.061 0.035 0.101s0.027 0.076 0.041 0.108c0.031 0.084 0.086 0.157 0.157 0.212 0.063 0.046 0.136 0.073 0.214 0.080v-0.907h0.265v0.91c0.080-0.004 0.157-0.030 0.223-0.075 0.074-0.056 0.13-0.132 0.161-0.219 0.017-0.040 0.031-0.079 0.044-0.117s0.024-0.066 0.032-0.092c0.034-0.125 0.105-0.236 0.204-0.32 0.104-0.064 0.225-0.094 0.347-0.087h0.097v0.24h-0.081c-0.047-0.002-0.095 0.004-0.14 0.016-0.035 0.010-0.066 0.028-0.092 0.054-0.029 0.027-0.051 0.061-0.066 0.098-0.017 0.042-0.034 0.088-0.051 0.141-0.027 0.1-0.075 0.192-0.142 0.272-0.050 0.055-0.107 0.104-0.169 0.144l0.821 1.055z"></path>
<path fill="#f58635" style="fill: var(--color3, #f58635)" d="M19.63 7.379c0.085 0.096 0.15 0.208 0.189 0.331 0.046 0.144 0.068 0.295 0.066 0.446 0.003 0.152-0.020 0.303-0.066 0.447-0.039 0.122-0.103 0.235-0.188 0.331-0.081 0.090-0.182 0.161-0.295 0.206-0.25 0.093-0.525 0.093-0.776 0-0.113-0.045-0.214-0.115-0.296-0.205-0.085-0.096-0.149-0.208-0.188-0.331-0.088-0.29-0.088-0.599 0-0.889 0.039-0.124 0.104-0.238 0.19-0.335 0.081-0.090 0.183-0.16 0.296-0.204 0.25-0.094 0.526-0.094 0.776 0 0.111 0.045 0.211 0.115 0.292 0.203zM19.605 8.157c0-0.262-0.059-0.464-0.176-0.607-0.061-0.067-0.136-0.121-0.219-0.158s-0.173-0.056-0.264-0.056c-0.091 0-0.181 0.019-0.264 0.056s-0.158 0.091-0.219 0.158c-0.117 0.143-0.175 0.345-0.175 0.607 0 0.264 0.059 0.467 0.179 0.608 0.061 0.066 0.135 0.12 0.218 0.156s0.172 0.055 0.262 0.055c0.090 0 0.179-0.019 0.262-0.055s0.157-0.089 0.218-0.156c0.119-0.141 0.179-0.343 0.179-0.608z"></path>
<path fill="#f58635" style="fill: var(--color3, #f58635)" d="M21.834 8.545c0.002 0.091-0.018 0.182-0.058 0.264-0.036 0.074-0.088 0.14-0.153 0.19-0.074 0.059-0.159 0.102-0.251 0.127-0.113 0.028-0.23 0.041-0.347 0.038h-0.715v-2.018h0.595c0.11-0.002 0.221 0.003 0.331 0.017 0.073 0.010 0.144 0.032 0.21 0.066 0.068 0.033 0.124 0.085 0.161 0.15 0.035 0.067 0.052 0.143 0.050 0.219 0.003 0.087-0.023 0.173-0.073 0.245-0.051 0.069-0.118 0.125-0.195 0.162v0.011c0.125 0.021 0.239 0.085 0.323 0.18 0.082 0.097 0.125 0.222 0.121 0.349zM21.382 7.635c0.001-0.042-0.007-0.084-0.024-0.123-0.017-0.034-0.045-0.063-0.079-0.081-0.048-0.026-0.101-0.042-0.155-0.046-0.061-0.006-0.136-0.009-0.225-0.009h-0.32v0.583h0.347c0.066 0.001 0.133-0.003 0.198-0.013 0.049-0.008 0.096-0.027 0.138-0.054 0.041-0.025 0.072-0.061 0.091-0.105 0.019-0.049 0.029-0.1 0.028-0.153zM21.554 8.556c0.003-0.067-0.009-0.133-0.036-0.194-0.030-0.054-0.076-0.096-0.132-0.122-0.050-0.023-0.103-0.037-0.158-0.042-0.075-0.007-0.151-0.011-0.226-0.010h-0.422v0.751h0.355c0.097 0.001 0.193-0.005 0.289-0.018 0.065-0.009 0.128-0.031 0.184-0.066 0.046-0.031 0.084-0.072 0.111-0.121 0.026-0.056 0.038-0.117 0.035-0.179z"></path>
<path fill="#f58635" style="fill: var(--color3, #f58635)" d="M23.655 7.386h-0.721v1.781h-0.268v-1.78h-0.721v-0.239h1.711v0.239z"></path>
<path fill="#f58635" style="fill: var(--color3, #f58635)" d="M25.518 9.166h-0.286l-0.198-0.563h-0.873l-0.198 0.563h-0.272l0.735-2.019h0.358l0.735 2.019zM24.951 8.373l-0.354-0.992-0.355 0.992h0.709z"></path>
<path fill="#f58635" style="fill: var(--color3, #f58635)" d="M12.895 3.006c0.024 0.040 0.040 0.085 0.046 0.132 0.006 0.043 0.001 0.086-0.014 0.127-0.017 0.046-0.042 0.088-0.075 0.124-0.038 0.039-0.082 0.072-0.129 0.099l-0.397 0.239-0.519-0.866 0.673-0.403 0.101 0.168-0.451 0.27 0.093 0.155 0.181-0.108c0.049-0.031 0.102-0.056 0.156-0.076 0.043-0.014 0.088-0.018 0.132-0.013 0.043 0.005 0.084 0.022 0.118 0.049 0.035 0.029 0.064 0.063 0.086 0.103zM12.668 3.151c-0.008-0.014-0.018-0.026-0.029-0.038s-0.026-0.020-0.042-0.024c-0.019-0.005-0.039-0.005-0.058 0-0.029 0.008-0.056 0.020-0.081 0.036l-0.142 0.085 0.132 0.22 0.142-0.085c0.022-0.013 0.043-0.029 0.060-0.048 0.014-0.015 0.024-0.032 0.031-0.051 0.005-0.016 0.006-0.032 0.004-0.048s-0.007-0.032-0.015-0.047h-0.003z"></path>
<path fill="#f58635" style="fill: var(--color3, #f58635)" d="M14.034 2.789l-0.233 0.12-0.366-0.727-0.259 0.132c0.018 0.041 0.032 0.073 0.042 0.096l0.040 0.093c0.031 0.071 0.057 0.143 0.079 0.218 0.015 0.051 0.026 0.103 0.033 0.155 0.004 0.037 0.004 0.074 0 0.111-0.003 0.027-0.009 0.054-0.018 0.079-0.011 0.031-0.028 0.059-0.051 0.083-0.024 0.027-0.053 0.050-0.085 0.066-0.020 0.010-0.042 0.020-0.066 0.029s-0.036 0.015-0.043 0.017l-0.102-0.202 0.009-0.005 0.013-0.005 0.017-0.007c0.017-0.008 0.033-0.018 0.048-0.030 0.010-0.008 0.017-0.018 0.022-0.030 0.018-0.052 0.018-0.109 0-0.161-0.027-0.089-0.060-0.175-0.099-0.26-0.019-0.043-0.040-0.090-0.066-0.14s-0.051-0.107-0.081-0.172l0.707-0.356 0.459 0.895z"></path>
<path fill="#f58635" style="fill: var(--color3, #f58635)" d="M15.116 2.335l-0.249 0.103-0.143-0.161-0.345 0.143 0.013 0.216-0.241 0.1-0.041-1.075 0.276-0.114 0.729 0.79zM14.596 2.128l-0.253-0.286 0.024 0.381 0.229-0.095z"></path>
<path fill="#f58635" style="fill: var(--color3, #f58635)" d="M15.666 1.289l-0.442 0.152 0.265 0.77-0.246 0.085-0.331-0.954 0.689-0.237 0.065 0.185z"></path>
<path fill="#f58635" style="fill: var(--color3, #f58635)" d="M16.883 1.276c0.022 0.067 0.030 0.137 0.024 0.206s-0.026 0.138-0.058 0.2c-0.079 0.116-0.197 0.2-0.332 0.236s-0.279 0.023-0.406-0.038c-0.114-0.081-0.196-0.2-0.233-0.335s-0.024-0.279 0.034-0.407c0.079-0.116 0.197-0.199 0.332-0.236s0.279-0.023 0.406 0.037c0.059 0.038 0.111 0.087 0.151 0.144s0.068 0.123 0.082 0.192zM16.618 1.612c0.017-0.038 0.026-0.078 0.026-0.12-0-0.050-0.007-0.099-0.020-0.147-0.012-0.051-0.033-0.1-0.061-0.144-0.020-0.033-0.047-0.062-0.079-0.085-0.027-0.020-0.059-0.032-0.093-0.036-0.032-0.004-0.064-0.002-0.095 0.007s-0.060 0.022-0.085 0.041c-0.028 0.020-0.050 0.047-0.066 0.077-0.017 0.036-0.025 0.075-0.026 0.115-0.002 0.052 0.005 0.105 0.019 0.155 0.012 0.050 0.032 0.099 0.059 0.143 0.021 0.034 0.048 0.063 0.079 0.086 0.027 0.019 0.059 0.032 0.092 0.036s0.066 0.003 0.097-0.006c0.032-0.009 0.062-0.024 0.088-0.044s0.048-0.048 0.061-0.079h0.003z"></path>
<path fill="#f58635" style="fill: var(--color3, #f58635)" d="M18.207 1.771l-0.235 0.044-0.044-0.231-0.602 0.112 0.044 0.231-0.235 0.044-0.079-0.421 0.075-0.014c0.032-0.127 0.049-0.257 0.050-0.387 0.001-0.148-0.012-0.296-0.040-0.442l0.741-0.139 0.149 0.8 0.098-0.018 0.079 0.421zM17.775 1.417l-0.114-0.608-0.248 0.046c0.014 0.115 0.017 0.23 0.009 0.345-0.006 0.098-0.022 0.196-0.046 0.291l0.399-0.075z"></path>
<path fill="#f58635" style="fill: var(--color3, #f58635)" d="M18.866 1.462l-0.587 0.071-0.022-0.178 0.164-0.020-0.079-0.647-0.165 0.020-0.021-0.177 0.587-0.072 0.022 0.178-0.164 0.020 0.079 0.647 0.164-0.020 0.022 0.178z"></path>
<path fill="#f58635" style="fill: var(--color3, #f58635)" d="M19.983 1.388l-0.253 0.014-0.039-0.675-0.382 0.698-0.248 0.014-0.058-1.008 0.253-0.015 0.034 0.607 0.354-0.629 0.277-0.016 0.059 1.010zM19.811 0.054c0.003 0.038-0.002 0.076-0.017 0.112s-0.038 0.067-0.067 0.091c-0.079 0.052-0.169 0.082-0.263 0.087s-0.188-0.014-0.272-0.057c-0.032-0.021-0.059-0.049-0.077-0.083s-0.029-0.071-0.030-0.109l0.227-0.013c-0 0.038 0.013 0.076 0.038 0.105 0.032 0.019 0.069 0.029 0.106 0.026s0.073-0.016 0.102-0.039c0.021-0.032 0.030-0.070 0.025-0.108l0.227-0.013z"></path>
<path fill="#f58635" style="fill: var(--color3, #f58635)" d="M21.124 1.4l-0.261-0.005 0.009-0.444-0.384-0.008-0.009 0.444-0.261-0.005 0.021-1.009 0.261 0.005-0.007 0.37 0.384 0.007 0.007-0.369 0.261 0.005-0.021 1.009z"></path>
<path fill="#f58635" style="fill: var(--color3, #f58635)" d="M22.28 1.504l-0.253-0.024 0.066-0.669-0.483 0.628-0.247-0.024 0.099-1.004 0.252 0.024-0.059 0.605 0.447-0.567 0.276 0.026-0.099 1.005z"></path>
<path fill="#f58635" style="fill: var(--color3, #f58635)" d="M23.418 1.696l-0.249-0.044 0.116-0.661-0.529 0.589-0.244-0.044 0.176-0.992 0.25 0.044-0.106 0.595 0.49-0.529 0.273 0.048-0.177 0.993zM23.558 0.358c-0.005 0.038-0.020 0.074-0.042 0.105s-0.052 0.056-0.086 0.073c-0.087 0.038-0.184 0.046-0.276 0.024-0.094-0.011-0.182-0.052-0.251-0.117-0.026-0.028-0.045-0.062-0.056-0.099s-0.012-0.076-0.004-0.113l0.224 0.040c-0.009 0.037-0.004 0.076 0.013 0.11 0.012 0.015 0.026 0.027 0.043 0.036s0.035 0.014 0.054 0.015c0.018 0.005 0.037 0.006 0.056 0.004s0.037-0.009 0.053-0.019c0.027-0.027 0.045-0.062 0.049-0.1l0.224 0.040z"></path>
<path fill="#f58635" style="fill: var(--color3, #f58635)" d="M25.297 1.369c0.029 0.043 0.047 0.093 0.054 0.145 0.006 0.057 0 0.115-0.017 0.171-0.016 0.055-0.043 0.107-0.080 0.151-0.035 0.041-0.079 0.073-0.128 0.094-0.052 0.022-0.107 0.034-0.163 0.036-0.067 0.002-0.133-0.004-0.198-0.020l-0.031 0.106-0.249-0.073 0.032-0.106c-0.062-0.023-0.12-0.053-0.175-0.091-0.047-0.033-0.087-0.073-0.118-0.12-0.029-0.044-0.048-0.095-0.055-0.147-0.007-0.057-0.002-0.115 0.016-0.17 0.015-0.055 0.041-0.106 0.077-0.15 0.034-0.039 0.076-0.071 0.124-0.091 0.052-0.022 0.108-0.033 0.164-0.034 0.067-0.002 0.133 0.005 0.199 0.020l0.030-0.099 0.248 0.073-0.029 0.099c0.064 0.022 0.124 0.052 0.18 0.089 0.048 0.031 0.089 0.071 0.121 0.118zM24.567 1.711l0.137-0.463c-0.028-0.007-0.057-0.008-0.085-0.003s-0.055 0.015-0.080 0.031c-0.024 0.016-0.045 0.036-0.061 0.060s-0.027 0.051-0.032 0.079c-0.020 0.056-0.022 0.117-0.005 0.173 0.024 0.056 0.069 0.1 0.125 0.124zM25.076 1.604c0.019-0.054 0.017-0.113-0.004-0.167-0.024-0.052-0.068-0.092-0.121-0.113l-0.136 0.463c0.059 0.012 0.121 0 0.172-0.032 0.045-0.040 0.076-0.093 0.089-0.151z"></path>
<path fill="#f58635" style="fill: var(--color3, #f58635)" d="M26.447 2.122c-0.022 0.066-0.057 0.128-0.104 0.181s-0.102 0.096-0.165 0.127c-0.132 0.047-0.277 0.044-0.408-0.007s-0.239-0.147-0.305-0.27c-0.044-0.133-0.041-0.277 0.010-0.408s0.146-0.24 0.268-0.308c0.132-0.047 0.276-0.044 0.407 0.006s0.239 0.146 0.304 0.27c0.026 0.065 0.038 0.135 0.036 0.206s-0.017 0.14-0.046 0.204zM26.032 2.235c0.036-0.020 0.068-0.048 0.092-0.081 0.030-0.040 0.053-0.085 0.070-0.132 0.020-0.048 0.033-0.1 0.037-0.152 0.003-0.039-0.002-0.078-0.014-0.116-0.011-0.032-0.029-0.060-0.053-0.084-0.024-0.022-0.051-0.039-0.081-0.051s-0.061-0.018-0.093-0.017c-0.034 0.001-0.066 0.009-0.096 0.025-0.035 0.019-0.065 0.045-0.089 0.077-0.032 0.041-0.058 0.087-0.076 0.137-0.020 0.048-0.032 0.099-0.036 0.151-0.003 0.039 0.001 0.078 0.013 0.116 0.011 0.032 0.029 0.061 0.053 0.084s0.051 0.041 0.082 0.052c0.031 0.012 0.063 0.018 0.096 0.017 0.034-0 0.066-0.009 0.096-0.025z"></path>
<path fill="#f58635" style="fill: var(--color3, #f58635)" d="M27.245 3.058l-0.235-0.112 0.192-0.401-0.347-0.164-0.192 0.397-0.235-0.112 0.437-0.91 0.235 0.113-0.16 0.331 0.347 0.167 0.16-0.331 0.235 0.112-0.436 0.912z"></path>
<path fill="#f58635" style="fill: var(--color3, #f58635)" d="M28.2 3.866l-0.208-0.12 0.118-0.204-0.529-0.307-0.12 0.202-0.207-0.12 0.214-0.371 0.066 0.038c0.108-0.076 0.205-0.165 0.29-0.264 0.097-0.112 0.184-0.233 0.257-0.362l0.652 0.376-0.407 0.705 0.087 0.050-0.214 0.376zM28.104 3.315l0.309-0.536-0.218-0.126c-0.064 0.096-0.136 0.185-0.217 0.268-0.069 0.071-0.144 0.135-0.225 0.191l0.351 0.202z"></path>
</symbol>
<symbol id="icon-logo-en" viewBox="0 0 34 32">
<path fill="#ffcc29" style="fill: var(--color1, #ffcc29)" d="M17.261 31.954c8.361 0 15.139-6.778 15.139-15.139s-6.778-15.139-15.139-15.139-15.139 6.778-15.139 15.139c0 8.361 6.778 15.139 15.139 15.139z"></path>
<path fill="#232222" style="fill: var(--color2, #232222)" d="M17.261 29.318c6.905 0 12.502-5.597 12.502-12.502s-5.597-12.502-12.502-12.502c-6.904 0-12.502 5.597-12.502 12.502s5.597 12.502 12.502 12.502z"></path>
<path fill="#232222" style="fill: var(--color2, #232222)" d="M18.192 3.298l-0.079 0.797 0.797 0.079 0.079-0.797-0.797-0.079z"></path>
<path fill="#232222" style="fill: var(--color2, #232222)" d="M17.286 16.805c0.141 0 0.256-0.114 0.256-0.256s-0.114-0.256-0.256-0.256c-0.141 0-0.256 0.114-0.256 0.256s0.114 0.256 0.256 0.256z"></path>
<path fill="#232222" style="fill: var(--color2, #232222)" d="M19.509 3.452l-0.156 0.785 0.785 0.156 0.156-0.785-0.785-0.156z"></path>
<path fill="#232222" style="fill: var(--color2, #232222)" d="M17.312 16.808c0.141 0 0.256-0.114 0.256-0.256s-0.114-0.256-0.256-0.256c-0.141 0-0.256 0.114-0.256 0.256s0.114 0.256 0.256 0.256z"></path>
<path fill="#232222" style="fill: var(--color2, #232222)" d="M20.809 3.738l-0.233 0.766 0.766 0.233 0.233-0.766-0.766-0.233z"></path>
<path fill="#232222" style="fill: var(--color2, #232222)" d="M17.336 16.815c0.141 0 0.256-0.114 0.256-0.256s-0.114-0.256-0.256-0.256c-0.141 0-0.256 0.114-0.256 0.256s0.114 0.256 0.256 0.256z"></path>
<path fill="#232222" style="fill: var(--color2, #232222)" d="M22.070 4.147l-0.306 0.74 0.74 0.306 0.306-0.74-0.74-0.306z"></path>
<path fill="#232222" style="fill: var(--color2, #232222)" d="M17.359 16.823c0.141 0 0.256-0.114 0.256-0.256s-0.114-0.256-0.256-0.256c-0.141 0-0.256 0.114-0.256 0.256s0.114 0.256 0.256 0.256z"></path>
<path fill="#232222" style="fill: var(--color2, #232222)" d="M23.29 4.682l-0.378 0.706 0.706 0.378 0.378-0.706-0.706-0.378z"></path>
<path fill="#232222" style="fill: var(--color2, #232222)" d="M17.382 16.834c0.141 0 0.256-0.114 0.256-0.256s-0.114-0.256-0.256-0.256c-0.141 0-0.256 0.114-0.256 0.256s0.114 0.256 0.256 0.256z"></path>
<path fill="#232222" style="fill: var(--color2, #232222)" d="M24.447 5.328l-0.445 0.666 0.666 0.445 0.445-0.666-0.666-0.445z"></path>
<path fill="#232222" style="fill: var(--color2, #232222)" d="M17.403 16.847c0.141 0 0.256-0.114 0.256-0.256s-0.114-0.256-0.256-0.256c-0.141 0-0.256 0.114-0.256 0.256s0.114 0.256 0.256 0.256z"></path>
<path fill="#232222" style="fill: var(--color2, #232222)" d="M25.539 6.092l-0.508 0.619 0.619 0.508 0.508-0.619-0.619-0.508z"></path>
<path fill="#232222" style="fill: var(--color2, #232222)" d="M17.424 16.861c0.141 0 0.256-0.114 0.256-0.256s-0.114-0.256-0.256-0.256c-0.141 0-0.256 0.114-0.256 0.256s0.114 0.256 0.256 0.256z"></path>
<path fill="#232222" style="fill: var(--color2, #232222)" d="M26.547 6.951l-0.566 0.566 0.566 0.566 0.566-0.566-0.566-0.566z"></path>
<path fill="#232222" style="fill: var(--color2, #232222)" d="M17.442 16.878c0.141 0 0.256-0.114 0.256-0.256s-0.114-0.256-0.256-0.256c-0.141 0-0.256 0.114-0.256 0.256s0.114 0.256 0.256 0.256z"></path>
<path fill="#232222" style="fill: var(--color2, #232222)" d="M27.47 7.913l-0.619 0.508 0.508 0.619 0.619-0.508-0.508-0.619z"></path>
<path fill="#232222" style="fill: var(--color2, #232222)" d="M17.459 16.897c0.141 0 0.256-0.114 0.256-0.256s-0.114-0.256-0.256-0.256-0.256 0.114-0.256 0.256c0 0.141 0.114 0.256 0.256 0.256z"></path>
<path fill="#232222" style="fill: var(--color2, #232222)" d="M28.291 8.952l-0.666 0.445 0.445 0.666 0.666-0.445-0.445-0.666z"></path>
<path fill="#232222" style="fill: var(--color2, #232222)" d="M17.474 16.917c0.141 0 0.256-0.114 0.256-0.256s-0.114-0.256-0.256-0.256c-0.141 0-0.256 0.114-0.256 0.256s0.114 0.256 0.256 0.256z"></path>
<path fill="#232222" style="fill: var(--color2, #232222)" d="M29.008 10.075l-0.706 0.377 0.378 0.706 0.706-0.377-0.377-0.706z"></path>
<path fill="#232222" style="fill: var(--color2, #232222)" d="M17.487 16.939c0.141 0 0.256-0.114 0.256-0.256s-0.114-0.256-0.256-0.256c-0.141 0-0.256 0.114-0.256 0.256s0.114 0.256 0.256 0.256z"></path>
<path fill="#232222" style="fill: var(--color2, #232222)" d="M29.611 11.254l-0.74 0.306 0.306 0.74 0.74-0.306-0.306-0.74z"></path>
<path fill="#232222" style="fill: var(--color2, #232222)" d="M17.498 16.962c0.141 0 0.256-0.114 0.256-0.256s-0.114-0.256-0.256-0.256c-0.141 0-0.256 0.114-0.256 0.256s0.114 0.256 0.256 0.256z"></path>
<path fill="#232222" style="fill: var(--color2, #232222)" d="M30.211 12.574l-0.769 0.232 0.232 0.769 0.769-0.232-0.232-0.769z"></path>
<path fill="#232222" style="fill: var(--color2, #232222)" d="M17.506 16.985c0.141 0 0.256-0.114 0.256-0.256s-0.114-0.256-0.256-0.256c-0.141 0-0.256 0.114-0.256 0.256s0.114 0.256 0.256 0.256z"></path>
<path fill="#232222" style="fill: var(--color2, #232222)" d="M30.457 13.771l-0.785 0.156 0.156 0.785 0.785-0.156-0.156-0.785z"></path>
<path fill="#232222" style="fill: var(--color2, #232222)" d="M17.512 17.009c0.141 0 0.256-0.114 0.256-0.256s-0.114-0.256-0.256-0.256c-0.141 0-0.256 0.114-0.256 0.256s0.114 0.256 0.256 0.256z"></path>
<path fill="#232222" style="fill: var(--color2, #232222)" d="M30.688 15.082l-0.797 0.078 0.078 0.797 0.797-0.078-0.078-0.797z"></path>
<path fill="#232222" style="fill: var(--color2, #232222)" d="M17.516 17.034c0.141 0 0.256-0.114 0.256-0.256s-0.114-0.256-0.256-0.256c-0.141 0-0.256 0.114-0.256 0.256s0.114 0.256 0.256 0.256z"></path>
<path fill="#232222" style="fill: var(--color2, #232222)" d="M30.795 16.403h-0.801v0.801h0.801v-0.801z"></path>
<path fill="#232222" style="fill: var(--color2, #232222)" d="M17.517 17.059c0.141 0 0.256-0.114 0.256-0.256s-0.114-0.256-0.256-0.256c-0.141 0-0.256 0.114-0.256 0.256s0.114 0.256 0.256 0.256z"></path>
<path fill="#232222" style="fill: var(--color2, #232222)" d="M29.968 17.651l-0.078 0.797 0.797 0.078 0.078-0.797-0.797-0.078z"></path>
<path fill="#232222" style="fill: var(--color2, #232222)" d="M17.516 17.084c0.141 0 0.256-0.114 0.256-0.256s-0.114-0.256-0.256-0.256c-0.141 0-0.256 0.114-0.256 0.256s0.114 0.256 0.256 0.256z"></path>
<path fill="#232222" style="fill: var(--color2, #232222)" d="M29.828 18.895l-0.156 0.785 0.785 0.156 0.156-0.785-0.785-0.156z"></path>
<path fill="#232222" style="fill: var(--color2, #232222)" d="M17.512 17.109c0.141 0 0.256-0.114 0.256-0.256s-0.114-0.256-0.256-0.256c-0.141 0-0.256 0.114-0.256 0.256s0.114 0.256 0.256 0.256z"></path>
<path fill="#232222" style="fill: var(--color2, #232222)" d="M29.644 19.986l-0.232 0.769 0.769 0.232 0.232-0.769-0.769-0.232z"></path>
<path fill="#232222" style="fill: var(--color2, #232222)" d="M17.506 17.134c0.141 0 0.256-0.114 0.256-0.256s-0.114-0.256-0.256-0.256c-0.141 0-0.256 0.114-0.256 0.256s0.114 0.256 0.256 0.256z"></path>
<path fill="#232222" style="fill: var(--color2, #232222)" d="M29.178 21.306l-0.306 0.74 0.74 0.306 0.306-0.74-0.74-0.306z"></path>
<path fill="#232222" style="fill: var(--color2, #232222)" d="M17.498 17.157c0.141 0 0.256-0.114 0.256-0.256s-0.114-0.256-0.256-0.256c-0.141 0-0.256 0.114-0.256 0.256s0.114 0.256 0.256 0.256z"></path>
<path fill="#232222" style="fill: var(--color2, #232222)" d="M28.681 22.457l-0.378 0.706 0.706 0.378 0.378-0.706-0.706-0.378z"></path>
<path fill="#232222" style="fill: var(--color2, #232222)" d="M17.487 17.18c0.141 0 0.256-0.114 0.256-0.256s-0.114-0.256-0.256-0.256c-0.141 0-0.256 0.114-0.256 0.256s0.114 0.256 0.256 0.256z"></path>
<path fill="#232222" style="fill: var(--color2, #232222)" d="M28.071 23.545l-0.445 0.666 0.666 0.445 0.445-0.666-0.666-0.445z"></path>
<path fill="#232222" style="fill: var(--color2, #232222)" d="M17.474 17.201c0.141 0 0.256-0.114 0.256-0.256s-0.114-0.256-0.256-0.256c-0.141 0-0.256 0.114-0.256 0.256s0.114 0.256 0.256 0.256z"></path>
<path fill="#232222" style="fill: var(--color2, #232222)" d="M27.358 24.576l-0.508 0.619 0.619 0.508 0.508-0.619-0.619-0.508z"></path>
<path fill="#232222" style="fill: var(--color2, #232222)" d="M17.459 17.221c0.141 0 0.256-0.114 0.256-0.256s-0.114-0.256-0.256-0.256-0.256 0.114-0.256 0.256c0 0.141 0.114 0.256 0.256 0.256z"></path>
<path fill="#232222" style="fill: var(--color2, #232222)" d="M26.547 25.524l-0.566 0.566 0.566 0.566 0.566-0.566-0.566-0.566z"></path>
<path fill="#232222" style="fill: var(--color2, #232222)" d="M17.442 17.24c0.141 0 0.256-0.114 0.256-0.256s-0.114-0.256-0.256-0.256c-0.141 0-0.256 0.114-0.256 0.256s0.114 0.256 0.256 0.256z"></path>
<path fill="#232222" style="fill: var(--color2, #232222)" d="M25.648 26.397l-0.619 0.508 0.508 0.619 0.619-0.508-0.508-0.619z"></path>
<path fill="#232222" style="fill: var(--color2, #232222)" d="M17.424 17.257c0.141 0 0.256-0.114 0.256-0.256s-0.114-0.256-0.256-0.256c-0.141 0-0.256 0.114-0.256 0.256s0.114 0.256 0.256 0.256z"></path>
<path fill="#232222" style="fill: var(--color2, #232222)" d="M24.668 27.168l-0.666 0.445 0.445 0.666 0.666-0.445-0.445-0.666z"></path>
<path fill="#232222" style="fill: var(--color2, #232222)" d="M17.403 17.272c0.141 0 0.256-0.114 0.256-0.256s-0.114-0.256-0.256-0.256c-0.141 0-0.256 0.114-0.256 0.256s0.114 0.256 0.256 0.256z"></path>
<path fill="#232222" style="fill: var(--color2, #232222)" d="M23.615 27.848l-0.706 0.377 0.378 0.706 0.706-0.377-0.377-0.706z"></path>
<path fill="#232222" style="fill: var(--color2, #232222)" d="M17.382 17.285c0.141 0 0.256-0.114 0.256-0.256s-0.114-0.256-0.256-0.256c-0.141 0-0.256 0.114-0.256 0.256s0.114 0.256 0.256 0.256z"></path>
<path fill="#232222" style="fill: var(--color2, #232222)" d="M22.504 28.414l-0.74 0.306 0.306 0.74 0.74-0.306-0.306-0.74z"></path>
<path fill="#232222" style="fill: var(--color2, #232222)" d="M17.359 17.296c0.141 0 0.256-0.114 0.256-0.256s-0.114-0.256-0.256-0.256c-0.141 0-0.256 0.114-0.256 0.256s0.114 0.256 0.256 0.256z"></path>
<path fill="#232222" style="fill: var(--color2, #232222)" d="M21.338 28.875l-0.766 0.232 0.232 0.766 0.766-0.232-0.232-0.766z"></path>
<path fill="#232222" style="fill: var(--color2, #232222)" d="M17.336 17.304c0.141 0 0.256-0.114 0.256-0.256s-0.114-0.256-0.256-0.256c-0.141 0-0.256 0.114-0.256 0.256s0.114 0.256 0.256 0.256z"></path>
<path fill="#232222" style="fill: var(--color2, #232222)" d="M20.138 29.213l-0.785 0.156 0.156 0.785 0.785-0.156-0.156-0.785z"></path>
<path fill="#232222" style="fill: var(--color2, #232222)" d="M17.312 17.31c0.141 0 0.256-0.114 0.256-0.256s-0.114-0.256-0.256-0.256c-0.141 0-0.256 0.114-0.256 0.256s0.114 0.256 0.256 0.256z"></path>
<path fill="#232222" style="fill: var(--color2, #232222)" d="M18.904 29.438l-0.797 0.078 0.078 0.797 0.797-0.078-0.078-0.797z"></path>
<path fill="#232222" style="fill: var(--color2, #232222)" d="M17.286 17.314c0.141 0 0.256-0.114 0.256-0.256s-0.114-0.256-0.256-0.256c-0.141 0-0.256 0.114-0.256 0.256s0.114 0.256 0.256 0.256z"></path>
<path fill="#232222" style="fill: var(--color2, #232222)" d="M17.661 29.536h-0.801v0.801h0.801v-0.801z"></path>
<path fill="#232222" style="fill: var(--color2, #232222)" d="M17.261 17.315c0.141 0 0.256-0.114 0.256-0.256s-0.114-0.256-0.256-0.256c-0.141 0-0.256 0.114-0.256 0.256s0.114 0.256 0.256 0.256z"></path>
<path fill="#232222" style="fill: var(--color2, #232222)" d="M15.617 29.44l-0.079 0.797 0.797 0.079 0.079-0.797-0.797-0.079z"></path>
<path fill="#232222" style="fill: var(--color2, #232222)" d="M17.237 17.314c0.141 0 0.256-0.114 0.256-0.256s-0.114-0.256-0.256-0.256c-0.141 0-0.256 0.114-0.256 0.256s0.114 0.256 0.256 0.256z"></path>
<path fill="#232222" style="fill: var(--color2, #232222)" d="M14.385 29.213l-0.156 0.785 0.785 0.156 0.156-0.785-0.785-0.156z"></path>
<path fill="#232222" style="fill: var(--color2, #232222)" d="M17.211 17.31c0.141 0 0.256-0.114 0.256-0.256s-0.114-0.256-0.256-0.256c-0.141 0-0.256 0.114-0.256 0.256s0.114 0.256 0.256 0.256z"></path>
<path fill="#232222" style="fill: var(--color2, #232222)" d="M13.183 28.876l-0.233 0.766 0.766 0.233 0.233-0.766-0.766-0.233z"></path>
<path fill="#232222" style="fill: var(--color2, #232222)" d="M17.187 17.304c0.141 0 0.256-0.114 0.256-0.256s-0.114-0.256-0.256-0.256c-0.141 0-0.256 0.114-0.256 0.256s0.114 0.256 0.256 0.256z"></path>
<path fill="#232222" style="fill: var(--color2, #232222)" d="M12.018 28.413l-0.306 0.74 0.74 0.306 0.306-0.74-0.74-0.306z"></path>
<path fill="#232222" style="fill: var(--color2, #232222)" d="M17.164 17.296c0.141 0 0.256-0.114 0.256-0.256s-0.114-0.256-0.256-0.256c-0.141 0-0.256 0.114-0.256 0.256s0.114 0.256 0.256 0.256z"></path>
<path fill="#232222" style="fill: var(--color2, #232222)" d="M10.906 27.841l-0.377 0.706 0.706 0.377 0.377-0.706-0.706-0.377z"></path>
<path fill="#232222" style="fill: var(--color2, #232222)" d="M17.141 17.285c0.141 0 0.256-0.114 0.256-0.256s-0.114-0.256-0.256-0.256c-0.141 0-0.256 0.114-0.256 0.256s0.114 0.256 0.256 0.256z"></path>
<path fill="#232222" style="fill: var(--color2, #232222)" d="M9.855 27.168l-0.445 0.666 0.666 0.445 0.445-0.666-0.666-0.445z"></path>
<path fill="#232222" style="fill: var(--color2, #232222)" d="M17.12 17.272c0.141 0 0.256-0.114 0.256-0.256s-0.114-0.256-0.256-0.256c-0.141 0-0.256 0.114-0.256 0.256s0.114 0.256 0.256 0.256z"></path>
<path fill="#232222" style="fill: var(--color2, #232222)" d="M8.874 26.396l-0.508 0.619 0.619 0.508 0.508-0.619-0.619-0.508z"></path>
<path fill="#232222" style="fill: var(--color2, #232222)" d="M17.099 17.257c0.141 0 0.256-0.114 0.256-0.256s-0.114-0.256-0.256-0.256c-0.141 0-0.256 0.114-0.256 0.256s0.114 0.256 0.256 0.256z"></path>
<path fill="#232222" style="fill: var(--color2, #232222)" d="M7.974 25.524l-0.566 0.566 0.566 0.566 0.566-0.566-0.566-0.566z"></path>
<path fill="#232222" style="fill: var(--color2, #232222)" d="M17.081 17.24c0.141 0 0.256-0.114 0.256-0.256s-0.114-0.256-0.256-0.256-0.256 0.114-0.256 0.256c0 0.141 0.114 0.256 0.256 0.256z"></path>
<path fill="#232222" style="fill: var(--color2, #232222)" d="M7.166 24.569l-0.619 0.508 0.508 0.619 0.619-0.508-0.508-0.619z"></path>
<path fill="#232222" style="fill: var(--color2, #232222)" d="M17.063 17.221c0.141 0 0.256-0.114 0.256-0.256s-0.114-0.256-0.256-0.256c-0.141 0-0.256 0.114-0.256 0.256s0.114 0.256 0.256 0.256z"></path>
<path fill="#232222" style="fill: var(--color2, #232222)" d="M6.452 23.545l-0.666 0.445 0.445 0.666 0.666-0.445-0.445-0.666z"></path>
<path fill="#232222" style="fill: var(--color2, #232222)" d="M17.049 17.201c0.141 0 0.256-0.114 0.256-0.256s-0.114-0.256-0.256-0.256c-0.141 0-0.256 0.114-0.256 0.256s0.114 0.256 0.256 0.256z"></path>
<path fill="#232222" style="fill: var(--color2, #232222)" d="M5.842 22.455l-0.706 0.377 0.377 0.706 0.706-0.377-0.377-0.706z"></path>
<path fill="#232222" style="fill: var(--color2, #232222)" d="M17.036 17.18c0.141 0 0.256-0.114 0.256-0.256s-0.114-0.256-0.256-0.256c-0.141 0-0.256 0.114-0.256 0.256s0.114 0.256 0.256 0.256z"></path>
<path fill="#232222" style="fill: var(--color2, #232222)" d="M5.201 21.223l-0.737 0.304 0.304 0.737 0.737-0.304-0.304-0.737z"></path>
<path fill="#232222" style="fill: var(--color2, #232222)" d="M17.025 17.157c0.141 0 0.256-0.114 0.256-0.256s-0.114-0.256-0.256-0.256c-0.141 0-0.256 0.114-0.256 0.256s0.114 0.256 0.256 0.256z"></path>
<path fill="#232222" style="fill: var(--color2, #232222)" d="M4.958 20.119l-0.766 0.232 0.232 0.766 0.766-0.232-0.232-0.766z"></path>
<path fill="#232222" style="fill: var(--color2, #232222)" d="M17.017 17.134c0.141 0 0.256-0.114 0.256-0.256s-0.114-0.256-0.256-0.256c-0.141 0-0.256 0.114-0.256 0.256s0.114 0.256 0.256 0.256z"></path>
<path fill="#232222" style="fill: var(--color2, #232222)" d="M4.695 18.895l-0.785 0.156 0.156 0.785 0.785-0.156-0.156-0.785z"></path>
<path fill="#232222" style="fill: var(--color2, #232222)" d="M17.011 17.109c0.141 0 0.256-0.114 0.256-0.256s-0.114-0.256-0.256-0.256c-0.141 0-0.256 0.114-0.256 0.256s0.114 0.256 0.256 0.256z"></path>
<path fill="#232222" style="fill: var(--color2, #232222)" d="M4.549 17.654l-0.797 0.078 0.078 0.797 0.797-0.078-0.078-0.797z"></path>
<path fill="#232222" style="fill: var(--color2, #232222)" d="M17.007 17.084c0.141 0 0.256-0.114 0.256-0.256s-0.114-0.256-0.256-0.256c-0.141 0-0.256 0.114-0.256 0.256s0.114 0.256 0.256 0.256z"></path>
<path fill="#232222" style="fill: var(--color2, #232222)" d="M4.529 16.403h-0.801v0.801h0.801v-0.801z"></path>
<path fill="#232222" style="fill: var(--color2, #232222)" d="M17.006 17.059c0.141 0 0.256-0.114 0.256-0.256s-0.114-0.256-0.256-0.256c-0.141 0-0.256 0.114-0.256 0.256s0.114 0.256 0.256 0.256z"></path>
<path fill="#232222" style="fill: var(--color2, #232222)" d="M3.831 15.076l-0.078 0.797 0.797 0.078 0.078-0.797-0.797-0.078z"></path>
<path fill="#232222" style="fill: var(--color2, #232222)" d="M17.007 17.034c0.141 0 0.256-0.114 0.256-0.256s-0.114-0.256-0.256-0.256c-0.141 0-0.256 0.114-0.256 0.256s0.114 0.256 0.256 0.256z"></path>
<path fill="#232222" style="fill: var(--color2, #232222)" d="M4.066 13.771l-0.156 0.785 0.785 0.156 0.156-0.785-0.785-0.156z"></path>
<path fill="#232222" style="fill: var(--color2, #232222)" d="M17.011 17.009c0.141 0 0.256-0.114 0.256-0.256s-0.114-0.256-0.256-0.256c-0.141 0-0.256 0.114-0.256 0.256s0.114 0.256 0.256 0.256z"></path>
<path fill="#232222" style="fill: var(--color2, #232222)" d="M4.428 12.494l-0.233 0.766 0.766 0.233 0.233-0.766-0.766-0.233z"></path>
<path fill="#232222" style="fill: var(--color2, #232222)" d="M17.017 16.985c0.141 0 0.256-0.114 0.256-0.256s-0.114-0.256-0.256-0.256c-0.141 0-0.256 0.114-0.256 0.256s0.114 0.256 0.256 0.256z"></path>
<path fill="#232222" style="fill: var(--color2, #232222)" d="M4.911 11.255l-0.306 0.74 0.74 0.306 0.306-0.74-0.74-0.306z"></path>
<path fill="#232222" style="fill: var(--color2, #232222)" d="M17.025 16.962c0.141 0 0.256-0.114 0.256-0.256s-0.114-0.256-0.256-0.256c-0.141 0-0.256 0.114-0.256 0.256s0.114 0.256 0.256 0.256z"></path>
<path fill="#232222" style="fill: var(--color2, #232222)" d="M5.514 10.069l-0.377 0.706 0.706 0.377 0.377-0.706-0.706-0.377z"></path>
<path fill="#232222" style="fill: var(--color2, #232222)" d="M17.036 16.939c0.141 0 0.256-0.114 0.256-0.256s-0.114-0.256-0.256-0.256c-0.141 0-0.256 0.114-0.256 0.256s0.114 0.256 0.256 0.256z"></path>
<path fill="#232222" style="fill: var(--color2, #232222)" d="M6.231 8.952l-0.445 0.666 0.666 0.445 0.445-0.666-0.666-0.445z"></path>
<path fill="#232222" style="fill: var(--color2, #232222)" d="M17.049 16.917c0.141 0 0.256-0.114 0.256-0.256s-0.114-0.256-0.256-0.256c-0.141 0-0.256 0.114-0.256 0.256s0.114 0.256 0.256 0.256z"></path>
<path fill="#232222" style="fill: var(--color2, #232222)" d="M7.054 7.911l-0.508 0.619 0.619 0.508 0.508-0.619-0.619-0.508z"></path>
<path fill="#232222" style="fill: var(--color2, #232222)" d="M17.063 16.897c0.141 0 0.256-0.114 0.256-0.256s-0.114-0.256-0.256-0.256c-0.141 0-0.256 0.114-0.256 0.256s0.114 0.256 0.256 0.256z"></path>
<path fill="#232222" style="fill: var(--color2, #232222)" d="M7.975 6.951l-0.566 0.566 0.566 0.566 0.566-0.566-0.566-0.566z"></path>
<path fill="#232222" style="fill: var(--color2, #232222)" d="M17.081 16.878c0.141 0 0.256-0.114 0.256-0.256s-0.114-0.256-0.256-0.256-0.256 0.114-0.256 0.256c0 0.141 0.114 0.256 0.256 0.256z"></path>
<path fill="#232222" style="fill: var(--color2, #232222)" d="M8.986 6.086l-0.619 0.508 0.508 0.619 0.619-0.508-0.508-0.619z"></path>
<path fill="#232222" style="fill: var(--color2, #232222)" d="M17.099 16.861c0.141 0 0.256-0.114 0.256-0.256s-0.114-0.256-0.256-0.256c-0.141 0-0.256 0.114-0.256 0.256s0.114 0.256 0.256 0.256z"></path>
<path fill="#232222" style="fill: var(--color2, #232222)" d="M10.076 5.329l-0.666 0.445 0.445 0.666 0.666-0.445-0.445-0.666z"></path>
<path fill="#232222" style="fill: var(--color2, #232222)" d="M17.12 16.847c0.141 0 0.256-0.114 0.256-0.256s-0.114-0.256-0.256-0.256c-0.141 0-0.256 0.114-0.256 0.256s0.114 0.256 0.256 0.256z"></path>
<path fill="#232222" style="fill: var(--color2, #232222)" d="M11.235 4.682l-0.706 0.377 0.377 0.706 0.706-0.377-0.378-0.706z"></path>
<path fill="#232222" style="fill: var(--color2, #232222)" d="M17.141 16.834c0.141 0 0.256-0.114 0.256-0.256s-0.114-0.256-0.256-0.256c-0.141 0-0.256 0.114-0.256 0.256s0.114 0.256 0.256 0.256z"></path>
<path fill="#232222" style="fill: var(--color2, #232222)" d="M12.452 4.147l-0.74 0.306 0.306 0.74 0.74-0.306-0.306-0.74z"></path>
<path fill="#232222" style="fill: var(--color2, #232222)" d="M17.164 16.823c0.141 0 0.256-0.114 0.256-0.256s-0.114-0.256-0.256-0.256c-0.141 0-0.256 0.114-0.256 0.256s0.114 0.256 0.256 0.256z"></path>
<path fill="#232222" style="fill: var(--color2, #232222)" d="M13.716 3.734l-0.766 0.233 0.233 0.766 0.766-0.233-0.233-0.766z"></path>
<path fill="#232222" style="fill: var(--color2, #232222)" d="M17.187 16.815c0.141 0 0.256-0.114 0.256-0.256s-0.114-0.256-0.256-0.256c-0.141 0-0.256 0.114-0.256 0.256s0.114 0.256 0.256 0.256z"></path>
<path fill="#232222" style="fill: var(--color2, #232222)" d="M15.014 3.452l-0.785 0.156 0.156 0.785 0.785-0.156-0.156-0.785z"></path>
<path fill="#232222" style="fill: var(--color2, #232222)" d="M17.211 16.808c0.141 0 0.256-0.114 0.256-0.256s-0.114-0.256-0.256-0.256c-0.141 0-0.256 0.114-0.256 0.256s0.114 0.256 0.256 0.256z"></path>
<path fill="#232222" style="fill: var(--color2, #232222)" d="M16.332 3.298l-0.797 0.078 0.078 0.797 0.797-0.078-0.078-0.797z"></path>
<path fill="#232222" style="fill: var(--color2, #232222)" d="M17.237 16.805c0.141 0 0.256-0.114 0.256-0.256s-0.114-0.256-0.256-0.256c-0.141 0-0.256 0.114-0.256 0.256s0.114 0.256 0.256 0.256z"></path>
<path fill="#232222" style="fill: var(--color2, #232222)" d="M17.661 3.27h-0.801v0.801h0.801v-0.801z"></path>
<path fill="#232222" style="fill: var(--color2, #232222)" d="M17.261 16.803c0.141 0 0.256-0.114 0.256-0.256s-0.114-0.256-0.256-0.256c-0.141 0-0.256 0.114-0.256 0.256s0.114 0.256 0.256 0.256z"></path>
<path fill="#ffcc29" style="fill: var(--color1, #ffcc29)" d="M32.76 10.055h-31.23c-0.677 0-1.225 0.548-1.225 1.225v10.613c0 0.677 0.548 1.225 1.225 1.225h31.23c0.677 0 1.225-0.548 1.225-1.225v-10.613c0-0.677-0.548-1.225-1.225-1.225z"></path>
<path fill="#232222" style="fill: var(--color2, #232222)" d="M32.76 10.362c0.244 0 0.477 0.097 0.65 0.269s0.269 0.406 0.27 0.649v10.615c-0 0.244-0.097 0.477-0.27 0.649s-0.406 0.269-0.65 0.269h-31.23c-0.244-0-0.477-0.097-0.649-0.269s-0.269-0.406-0.269-0.649v-10.615c0-0.244 0.097-0.477 0.269-0.649s0.406-0.269 0.649-0.269h31.23zM32.76 9.749h-31.23c-0.201 0-0.4 0.040-0.586 0.117s-0.354 0.19-0.496 0.332c-0.142 0.142-0.255 0.311-0.332 0.497s-0.116 0.385-0.116 0.586v10.615c0 0.406 0.161 0.796 0.449 1.083s0.677 0.449 1.083 0.449h31.229c0.406 0 0.796-0.161 1.083-0.449s0.449-0.677 0.449-1.083v-10.615c0-0.201-0.039-0.4-0.116-0.586s-0.19-0.355-0.332-0.497c-0.142-0.142-0.311-0.255-0.497-0.332s-0.385-0.116-0.586-0.116z"></path>
<path fill="#ffcc29" style="fill: var(--color1, #ffcc29)" d="M32.783 11.54h-31.231c-0.039 0-0.070 0.031-0.070 0.070v9.952c0 0.039 0.031 0.070 0.070 0.070h31.231c0.039 0 0.070-0.031 0.070-0.070v-9.952c0-0.039-0.031-0.070-0.070-0.070z"></path>
<path fill="#232222" style="fill: var(--color2, #232222)" d="M32.593 11.801v9.572h-30.854v-9.572h30.854zM32.783 11.28h-31.23c-0.088 0-0.172 0.035-0.235 0.097s-0.098 0.146-0.099 0.234v9.95c0 0.089 0.035 0.174 0.098 0.237s0.148 0.098 0.237 0.098h31.23c0.088-0.001 0.172-0.037 0.234-0.099s0.097-0.147 0.097-0.235v-9.95c0-0.043-0.009-0.086-0.025-0.126s-0.041-0.077-0.072-0.107c-0.031-0.031-0.067-0.055-0.107-0.072s-0.083-0.025-0.127-0.025z"></path>
<path fill="#232222" style="fill: var(--color2, #232222)" d="M9.807 19.906h-1.057v-6.49h1.057v2.735h1.752v-2.735h1.056v6.49h-1.056v-2.828h-1.752v2.828z"></path>
<path fill="#232222" style="fill: var(--color2, #232222)" d="M17.149 19.906h-3.43v-6.49h3.43v0.927h-2.373v1.806h1.919v0.929h-1.919v1.901h2.373v0.927z"></path>
<path fill="#232222" style="fill: var(--color2, #232222)" d="M21.343 19.906h-3.331v-6.49h1.056v5.562h2.275v0.927z"></path>
<path fill="#232222" style="fill: var(--color2, #232222)" d="M23.184 19.906h-1.057v-6.49h1.836c0.643 0 1.119 0.144 1.428 0.431s0.464 0.731 0.464 1.331v0.335c0 0.606-0.155 1.052-0.464 1.338s-0.785 0.43-1.428 0.431h-0.779v2.625zM23.184 14.343v2.012h0.779c0.297 0 0.51-0.065 0.64-0.195s0.194-0.346 0.195-0.649v-0.335c0-0.297-0.065-0.511-0.195-0.64s-0.343-0.195-0.64-0.195l-0.779 0.001z"></path>
<path fill="#f58635" style="fill: var(--color3, #f58635)" d="M12.986 26.366h-0.353l-0.808-0.91-0.201 0.217v0.693h-0.272v-2.043h0.272v1.066l0.992-1.066h0.329l-0.913 0.961 0.953 1.083z"></path>
<path fill="#f58635" style="fill: var(--color3, #f58635)" d="M14.853 26.366h-0.272v-1.004h-1.020v1.004h-0.272v-2.043h0.272v0.803h1.020v-0.803h0.272v2.043z"></path>
<path fill="#f58635" style="fill: var(--color3, #f58635)" d="M17.012 26.366h-0.286l-0.201-0.569h-0.883l-0.201 0.569h-0.276l0.744-2.043h0.362l0.741 2.043zM16.438 25.564l-0.358-1.004-0.359 1.004h0.717z"></path>
<path fill="#f58635" style="fill: var(--color3, #f58635)" d="M19.013 26.366h-0.353l-0.684-0.812h-0.381v0.812h-0.272v-2.043h0.572c0.104-0.002 0.207 0.006 0.309 0.024 0.079 0.015 0.154 0.044 0.222 0.086 0.071 0.044 0.131 0.105 0.173 0.177 0.045 0.082 0.066 0.174 0.063 0.268 0.004 0.132-0.035 0.262-0.111 0.37-0.079 0.102-0.185 0.18-0.306 0.224l0.767 0.895zM18.377 24.899c0.001-0.054-0.009-0.107-0.031-0.156-0.022-0.047-0.058-0.087-0.102-0.114-0.042-0.028-0.090-0.047-0.14-0.056-0.063-0.011-0.127-0.016-0.191-0.015h-0.318v0.771h0.274c0.076 0.001 0.151-0.006 0.226-0.022 0.057-0.012 0.11-0.039 0.154-0.076s0.079-0.086 0.1-0.14c0.020-0.061 0.030-0.126 0.027-0.19z"></path>
<path fill="#f58635" style="fill: var(--color3, #f58635)" d="M20.919 26.366h-0.353l-0.808-0.91-0.201 0.217v0.693h-0.272v-2.043h0.272v1.066l0.992-1.066h0.326l-0.913 0.961 0.957 1.083z"></path>
<path fill="#f58635" style="fill: var(--color3, #f58635)" d="M21.945 26.366h-0.808v-0.209h0.268v-1.626h-0.268v-0.209h0.808v0.209h-0.268v1.626h0.268v0.209z"></path>
<path fill="#f58635" style="fill: var(--color3, #f58635)" d="M24.019 24.323l-0.744 2.043h-0.362l-0.744-2.043h0.291l0.641 1.798 0.641-1.798h0.277z"></path>
<path fill="#f58635" style="fill: var(--color3, #f58635)" d="M13.259 6.848l-0.719 1.147v0.896h-0.272v-0.87l-0.721-1.173h0.3l0.558 0.914 0.564-0.914h0.29z"></path>
<path fill="#f58635" style="fill: var(--color3, #f58635)" d="M14.887 8.892h-1.346v-2.043h1.346v0.242h-1.075v0.56h1.075v0.242h-1.075v0.757h1.075v0.244z"></path>
<path fill="#f58635" style="fill: var(--color3, #f58635)" d="M16.61 8.892h-1.289v-2.043h0.268v1.8h1.021l0.001 0.244z"></path>
<path fill="#f58635" style="fill: var(--color3, #f58635)" d="M18.175 8.892h-1.293v-2.043h0.272v1.8h1.021v0.244z"></path>
<path fill="#f58635" style="fill: var(--color3, #f58635)" d="M19.942 7.083c0.087 0.097 0.152 0.211 0.191 0.335 0.047 0.146 0.069 0.298 0.067 0.452 0.003 0.153-0.020 0.306-0.067 0.452-0.039 0.124-0.104 0.238-0.19 0.334-0.082 0.091-0.184 0.163-0.298 0.209-0.253 0.094-0.532 0.094-0.785 0-0.114-0.045-0.217-0.116-0.3-0.207-0.086-0.097-0.151-0.211-0.19-0.334-0.088-0.294-0.088-0.606 0-0.9 0.040-0.125 0.105-0.24 0.192-0.339 0.082-0.091 0.185-0.162 0.3-0.206 0.125-0.048 0.257-0.072 0.391-0.071 0.135-0.002 0.269 0.022 0.394 0.072 0.112 0.045 0.213 0.115 0.295 0.205zM19.917 7.871c0-0.265-0.059-0.47-0.178-0.614-0.062-0.068-0.137-0.122-0.221-0.16s-0.175-0.056-0.267-0.056c-0.092 0-0.183 0.019-0.267 0.056s-0.159 0.092-0.221 0.16c-0.119 0.144-0.178 0.349-0.178 0.614s0.060 0.473 0.181 0.616c0.062 0.067 0.137 0.121 0.22 0.158s0.174 0.056 0.265 0.056 0.182-0.019 0.265-0.056c0.084-0.037 0.159-0.090 0.22-0.158 0.12-0.143 0.18-0.347 0.18-0.616z"></path>
<path fill="#f58635" style="fill: var(--color3, #f58635)" d="M23.008 6.848l-0.529 2.043h-0.306l-0.43-1.696-0.42 1.696h-0.299l-0.541-2.043h0.279l0.429 1.699 0.418-1.699h0.276l0.427 1.715 0.427-1.715h0.269z"></path>
<path fill="#f58635" style="fill: var(--color3, #f58635)" d="M8.398 3.914c-0.057 0.043-0.122 0.076-0.19 0.097-0.063 0.020-0.129 0.026-0.195 0.016s-0.128-0.033-0.183-0.070c-0.126-0.088-0.22-0.216-0.268-0.363-0.019-0.065-0.024-0.134-0.015-0.201 0.011-0.065 0.035-0.127 0.072-0.182 0.041-0.061 0.092-0.114 0.152-0.157 0.031-0.023 0.064-0.044 0.098-0.063 0.029-0.016 0.058-0.029 0.088-0.041 0.027-0.011 0.056-0.019 0.084-0.026l0.067-0.015 0.146 0.201-0.025 0.018h-0.062c-0.027-0.002-0.053-0.002-0.080 0-0.030 0.003-0.059 0.010-0.088 0.019-0.031 0.009-0.059 0.024-0.085 0.043-0.029 0.021-0.055 0.047-0.075 0.076s-0.035 0.065-0.041 0.101c-0.006 0.041-0.004 0.083 0.008 0.122 0.015 0.051 0.040 0.098 0.072 0.14 0.031 0.045 0.071 0.084 0.116 0.114 0.035 0.022 0.074 0.036 0.115 0.041 0.036 0.004 0.073 0 0.107-0.011 0.033-0.011 0.064-0.027 0.092-0.047 0.026-0.019 0.048-0.041 0.067-0.067s0.035-0.053 0.047-0.082c0.010-0.023 0.019-0.047 0.025-0.071s0.012-0.043 0.015-0.060l0.022-0.016 0.145 0.197-0.040 0.067c-0.013 0.022-0.028 0.043-0.044 0.067-0.020 0.025-0.041 0.050-0.063 0.073-0.027 0.028-0.056 0.054-0.088 0.077z"></path>
<path fill="#f58635" style="fill: var(--color3, #f58635)" d="M9.601 3.1l-0.223 0.14-0.239-0.381-0.33 0.206 0.239 0.382-0.223 0.139-0.542-0.866 0.223-0.14 0.201 0.317 0.326-0.203-0.201-0.317 0.223-0.14 0.546 0.863z"></path>
<path fill="#f58635" style="fill: var(--color3, #f58635)" d="M10.647 2.539l-0.241 0.127-0.159-0.149-0.335 0.176 0.034 0.216-0.235 0.124-0.144-1.079 0.268-0.142 0.812 0.727zM10.103 2.38l-0.282-0.268 0.060 0.383 0.222-0.115z"></path>
<path fill="#f58635" style="fill: var(--color3, #f58635)" d="M11.666 2.085l-0.294 0.134-0.407-0.229-0.111 0.050 0.153 0.342-0.239 0.107-0.418-0.933 0.401-0.18c0.047-0.022 0.096-0.040 0.147-0.054 0.042-0.012 0.086-0.015 0.13-0.009s0.084 0.020 0.12 0.044c0.039 0.028 0.069 0.067 0.086 0.111 0.030 0.059 0.040 0.125 0.028 0.19-0.016 0.062-0.047 0.119-0.090 0.167l0.493 0.262zM11.002 1.607c-0.009-0.021-0.023-0.040-0.041-0.054-0.020-0.013-0.043-0.019-0.067-0.017-0.021 0.001-0.043 0.006-0.063 0.013-0.022 0.009-0.047 0.019-0.076 0.032l-0.088 0.039 0.112 0.251 0.074-0.033c0.032-0.014 0.064-0.030 0.094-0.049 0.022-0.013 0.041-0.032 0.053-0.055 0.010-0.018 0.016-0.039 0.017-0.060-0-0.023-0.006-0.046-0.016-0.068z"></path>
<path fill="#f58635" style="fill: var(--color3, #f58635)" d="M12.281 1.867l-0.561 0.208-0.064-0.169 0.157-0.058-0.229-0.618-0.157 0.058-0.063-0.17 0.561-0.208 0.063 0.17-0.157 0.058 0.23 0.618 0.157-0.058 0.064 0.17z"></path>
<path fill="#f58635" style="fill: var(--color3, #f58635)" d="M12.992 0.777l-0.305 0.094 0.244 0.787-0.252 0.078-0.244-0.787-0.304 0.094-0.058-0.189 0.861-0.268 0.058 0.19z"></path>
<path fill="#f58635" style="fill: var(--color3, #f58635)" d="M14.291 1.31l-0.268 0.063-0.117-0.185-0.368 0.088-0.021 0.217-0.258 0.062 0.134-1.081 0.294-0.067 0.604 0.903zM13.804 1.021l-0.207-0.327-0.037 0.385 0.244-0.058z"></path>
<path fill="#f58635" style="fill: var(--color3, #f58635)" d="M15.231 0.838c0.008 0.045 0.005 0.090-0.008 0.134-0.013 0.041-0.036 0.078-0.067 0.108-0.034 0.036-0.075 0.065-0.12 0.085-0.057 0.024-0.117 0.040-0.178 0.049l-0.438 0.074-0.165-1.008 0.391-0.067c0.059-0.011 0.12-0.018 0.18-0.021 0.040-0.001 0.080 0.005 0.118 0.017s0.073 0.035 0.098 0.067c0.025 0.031 0.041 0.068 0.047 0.107 0.008 0.045 0.002 0.092-0.017 0.134-0.021 0.043-0.054 0.080-0.095 0.104v0.005c0.061 0 0.121 0.020 0.17 0.056 0.024 0.019 0.044 0.042 0.058 0.069s0.024 0.056 0.027 0.086zM14.829 0.479c-0.003-0.017-0.010-0.034-0.021-0.048-0.012-0.016-0.031-0.027-0.051-0.030-0.024-0.004-0.048-0.004-0.072 0l-0.119 0.018-0.024 0.004 0.035 0.213 0.040-0.007c0.041-0.007 0.076-0.013 0.105-0.019 0.024-0.004 0.046-0.012 0.067-0.025 0.019-0.010 0.033-0.027 0.040-0.047 0.004-0.019 0.005-0.039 0.001-0.059h-0.001zM14.96 0.88c-0.003-0.026-0.014-0.051-0.031-0.071-0.019-0.016-0.042-0.027-0.067-0.029-0.029-0.002-0.057-0-0.086 0.005l-0.112 0.017-0.056 0.009 0.041 0.251h0.019l0.157-0.027c0.030-0.005 0.058-0.016 0.084-0.031 0.021-0.012 0.038-0.031 0.048-0.054 0.007-0.023 0.008-0.048 0.003-0.072l-0.001 0.002z"></path>
<path fill="#f58635" style="fill: var(--color3, #f58635)" d="M16.196 1.056l-0.736 0.072-0.1-1.016 0.262-0.026 0.081 0.82 0.468-0.047 0.025 0.197z"></path>
<path fill="#f58635" style="fill: var(--color3, #f58635)" d="M17.078 1.021l-0.736 0.028-0.039-1.021 0.736-0.028 0.007 0.201-0.476 0.017 0.007 0.177 0.442-0.017 0.008 0.197-0.442 0.017 0.009 0.252 0.476-0.018 0.008 0.195z"></path>
<path fill="#f58635" style="fill: var(--color3, #f58635)" d="M18.533 0.247l-0.468-0.026-0.010 0.19 0.435 0.024-0.011 0.197-0.435-0.023-0.024 0.436-0.262-0.015 0.056-1.020 0.731 0.040-0.012 0.197z"></path>
<path fill="#f58635" style="fill: var(--color3, #f58635)" d="M19.701 0.698c-0.005 0.071-0.025 0.139-0.057 0.202s-0.076 0.119-0.13 0.165c-0.118 0.079-0.261 0.113-0.401 0.095s-0.271-0.085-0.366-0.19c-0.076-0.12-0.108-0.262-0.091-0.403s0.083-0.271 0.187-0.368c0.118-0.078 0.26-0.112 0.401-0.094s0.27 0.085 0.366 0.189c0.042 0.058 0.071 0.123 0.087 0.193s0.017 0.141 0.005 0.211zM19.322 0.912c0.030-0.029 0.054-0.064 0.070-0.102 0.019-0.047 0.031-0.096 0.037-0.146 0.008-0.052 0.008-0.106 0-0.158-0.007-0.039-0.021-0.077-0.042-0.11-0.018-0.028-0.043-0.051-0.072-0.067s-0.060-0.026-0.092-0.030c-0.032-0.004-0.064-0.002-0.096 0.006-0.033 0.009-0.063 0.026-0.088 0.048-0.029 0.028-0.051 0.061-0.067 0.098-0.021 0.049-0.035 0.1-0.041 0.153-0.008 0.052-0.008 0.105 0 0.157 0.007 0.039 0.021 0.077 0.042 0.111 0.019 0.028 0.043 0.050 0.072 0.067 0.058 0.033 0.127 0.041 0.192 0.023 0.032-0.010 0.061-0.027 0.085-0.050z"></path>
<path fill="#f58635" style="fill: var(--color3, #f58635)" d="M20.768 1.052c-0.008 0.053-0.027 0.105-0.056 0.15s-0.069 0.083-0.114 0.112c-0.11 0.053-0.236 0.064-0.353 0.031-0.121-0.015-0.232-0.074-0.312-0.166-0.031-0.044-0.052-0.094-0.062-0.147s-0.007-0.108 0.007-0.16l0.129-0.639 0.26 0.052-0.127 0.625c-0.016 0.054-0.011 0.113 0.013 0.164 0.015 0.023 0.035 0.041 0.058 0.055s0.049 0.022 0.076 0.024c0.025 0.008 0.052 0.010 0.078 0.006s0.051-0.012 0.074-0.026c0.043-0.039 0.070-0.091 0.076-0.149l0.127-0.625 0.26 0.053-0.131 0.639z"></path>
<path fill="#f58635" style="fill: var(--color3, #f58635)" d="M21.811 1.721l-0.245-0.067-0.223-0.795-0.19 0.675-0.233-0.067 0.276-0.982 0.303 0.086 0.201 0.664 0.159-0.563 0.232 0.067-0.28 0.981z"></path>
<path fill="#f58635" style="fill: var(--color3, #f58635)" d="M23.124 1.649c-0.030 0.084-0.081 0.159-0.149 0.217-0.061 0.053-0.135 0.089-0.214 0.106-0.058 0.011-0.118 0.012-0.176 0.003-0.070-0.012-0.139-0.031-0.205-0.056l-0.338-0.124 0.351-0.959 0.348 0.128c0.068 0.023 0.134 0.055 0.195 0.094 0.047 0.029 0.088 0.065 0.123 0.108 0.051 0.064 0.084 0.14 0.096 0.221 0.012 0.089 0.001 0.179-0.031 0.263zM22.868 1.556c0.022-0.055 0.031-0.115 0.025-0.175-0.007-0.055-0.032-0.106-0.071-0.145-0.019-0.021-0.042-0.040-0.067-0.054-0.038-0.020-0.077-0.037-0.117-0.051l-0.062-0.023-0.22 0.602 0.062 0.023c0.043 0.017 0.088 0.030 0.134 0.039 0.030 0.005 0.061 0.005 0.092 0 0.050-0.008 0.097-0.032 0.134-0.067 0.042-0.042 0.073-0.093 0.090-0.15z"></path>
<path fill="#f58635" style="fill: var(--color3, #f58635)" d="M23.979 2.589l-0.248-0.112 0.020-0.217-0.345-0.156-0.15 0.159-0.241-0.109 0.764-0.776 0.276 0.125-0.077 1.086zM23.77 2.063l0.036-0.385-0.268 0.282 0.232 0.104z"></path>
<path fill="#f58635" style="fill: var(--color3, #f58635)" d="M25.186 2.302l-0.282-0.151-0.388 0.727-0.23-0.124 0.388-0.727-0.282-0.151 0.094-0.174 0.795 0.425-0.095 0.174z"></path>
<path fill="#f58635" style="fill: var(--color3, #f58635)" d="M25.393 3.393l-0.511-0.311 0.094-0.155 0.143 0.087 0.343-0.563-0.143-0.087 0.094-0.155 0.511 0.31-0.094 0.155-0.143-0.087-0.343 0.563 0.143 0.087-0.094 0.155z"></path>
<path fill="#f58635" style="fill: var(--color3, #f58635)" d="M26.67 3.648c-0.037 0.060-0.086 0.112-0.143 0.152s-0.122 0.070-0.191 0.086c-0.141 0.014-0.283-0.022-0.399-0.104s-0.2-0.202-0.234-0.339c-0.012-0.141 0.026-0.282 0.108-0.399s0.201-0.201 0.337-0.238c0.141-0.014 0.283 0.023 0.399 0.104s0.2 0.201 0.235 0.339c0.009 0.071 0.004 0.142-0.015 0.211s-0.051 0.133-0.095 0.189zM26.235 3.66c0.040-0.011 0.078-0.031 0.11-0.058 0.079-0.068 0.139-0.155 0.173-0.252 0.012-0.038 0.017-0.078 0.014-0.117-0.003-0.034-0.014-0.067-0.032-0.095-0.018-0.026-0.040-0.049-0.067-0.067s-0.056-0.032-0.088-0.039c-0.033-0.008-0.067-0.008-0.1 0-0.039 0.010-0.075 0.029-0.106 0.055-0.042 0.033-0.078 0.072-0.108 0.116-0.031 0.042-0.055 0.089-0.072 0.139-0.013 0.038-0.018 0.078-0.015 0.118 0.002 0.034 0.013 0.067 0.031 0.095s0.041 0.052 0.068 0.071c0.027 0.019 0.058 0.032 0.090 0.039s0.068 0.005 0.1-0.005z"></path>
<path fill="#f58635" style="fill: var(--color3, #f58635)" d="M27.24 4.768l-0.196-0.161 0.11-0.818-0.445 0.542-0.187-0.153 0.648-0.789 0.244 0.201-0.084 0.688 0.371-0.452 0.187 0.153-0.648 0.789z"></path>
</symbol>
<symbol id="icon-aid-kit" viewBox="0 0 32 32">
<path d="M28 8h-6v-4c0-1.1-0.9-2-2-2h-8c-1.1 0-2 0.9-2 2v4h-6c-2.2 0-4 1.8-4 4v16c0 2.2 1.8 4 4 4h24c2.2 0 4-1.8 4-4v-16c0-2.2-1.8-4-4-4zM12 4h8v4h-8v-4zM24 22h-6v6h-4v-6h-6v-4h6v-6h4v6h6v4z"></path>
</symbol>
<symbol id="icon-truck" viewBox="0 0 32 32">
<path d="M32 18l-4-8h-6v-4c0-1.1-0.9-2-2-2h-18c-1.1 0-2 0.9-2 2v16l2 2h2.536c-0.341 0.588-0.536 1.271-0.536 2 0 2.209 1.791 4 4 4s4-1.791 4-4c0-0.729-0.196-1.412-0.536-2h11.073c-0.341 0.588-0.537 1.271-0.537 2 0 2.209 1.791 4 4 4s4-1.791 4-4c0-0.729-0.196-1.412-0.537-2h2.537v-6zM22 18v-6h4.146l3 6h-7.146z"></path>
</symbol>
<symbol id="icon-mail" viewBox="0 0 32 32">
<path d="M16 0c-8.837 0-16 7.163-16 16s7.163 16 16 16 16-7.163 16-16-7.163-16-16-16zM8 8h16c0.286 0 0.563 0.061 0.817 0.177l-8.817 10.286-8.817-10.287c0.254-0.116 0.531-0.177 0.817-0.177zM6 22v-12c0-0.042 0.002-0.084 0.004-0.125l5.864 6.842-5.8 5.8c-0.045-0.167-0.069-0.34-0.069-0.517zM24 24h-16c-0.177 0-0.35-0.024-0.517-0.069l5.691-5.691 2.826 3.297 2.826-3.297 5.691 5.691c-0.167 0.045-0.34 0.069-0.517 0.069zM26 22c0 0.177-0.024 0.35-0.069 0.517l-5.8-5.8 5.865-6.842c0.003 0.041 0.004 0.083 0.004 0.125v12z"></path>
</symbol>
<symbol id="icon-facebook" viewBox="0 0 32 32">
<path d="M29 0h-26c-1.65 0-3 1.35-3 3v26c0 1.65 1.35 3 3 3h13v-14h-4v-4h4v-2c0-3.306 2.694-6 6-6h4v4h-4c-1.1 0-2 0.9-2 2v2h6l-1 4h-5v14h9c1.65 0 3-1.35 3-3v-26c0-1.65-1.35-3-3-3z"></path>
</symbol>
<symbol id="icon-instagram" viewBox="0 0 32 32">
<path d="M16 2.881c4.275 0 4.781 0.019 6.462 0.094 1.563 0.069 2.406 0.331 2.969 0.55 0.744 0.288 1.281 0.638 1.837 1.194 0.563 0.563 0.906 1.094 1.2 1.838 0.219 0.563 0.481 1.412 0.55 2.969 0.075 1.688 0.094 2.194 0.094 6.463s-0.019 4.781-0.094 6.463c-0.069 1.563-0.331 2.406-0.55 2.969-0.288 0.744-0.637 1.281-1.194 1.837-0.563 0.563-1.094 0.906-1.837 1.2-0.563 0.219-1.413 0.481-2.969 0.55-1.688 0.075-2.194 0.094-6.463 0.094s-4.781-0.019-6.463-0.094c-1.563-0.069-2.406-0.331-2.969-0.55-0.744-0.288-1.281-0.637-1.838-1.194-0.563-0.563-0.906-1.094-1.2-1.837-0.219-0.563-0.481-1.413-0.55-2.969-0.075-1.688-0.094-2.194-0.094-6.463s0.019-4.781 0.094-6.463c0.069-1.563 0.331-2.406 0.55-2.969 0.288-0.744 0.638-1.281 1.194-1.838 0.563-0.563 1.094-0.906 1.838-1.2 0.563-0.219 1.412-0.481 2.969-0.55 1.681-0.075 2.188-0.094 6.463-0.094zM16 0c-4.344 0-4.887 0.019-6.594 0.094-1.7 0.075-2.869 0.35-3.881 0.744-1.056 0.412-1.95 0.956-2.837 1.85-0.894 0.888-1.438 1.781-1.85 2.831-0.394 1.019-0.669 2.181-0.744 3.881-0.075 1.713-0.094 2.256-0.094 6.6s0.019 4.887 0.094 6.594c0.075 1.7 0.35 2.869 0.744 3.881 0.413 1.056 0.956 1.95 1.85 2.837 0.887 0.887 1.781 1.438 2.831 1.844 1.019 0.394 2.181 0.669 3.881 0.744 1.706 0.075 2.25 0.094 6.594 0.094s4.888-0.019 6.594-0.094c1.7-0.075 2.869-0.35 3.881-0.744 1.050-0.406 1.944-0.956 2.831-1.844s1.438-1.781 1.844-2.831c0.394-1.019 0.669-2.181 0.744-3.881 0.075-1.706 0.094-2.25 0.094-6.594s-0.019-4.887-0.094-6.594c-0.075-1.7-0.35-2.869-0.744-3.881-0.394-1.063-0.938-1.956-1.831-2.844-0.887-0.887-1.781-1.438-2.831-1.844-1.019-0.394-2.181-0.669-3.881-0.744-1.712-0.081-2.256-0.1-6.6-0.1v0z"></path>
<path d="M16 7.781c-4.537 0-8.219 3.681-8.219 8.219s3.681 8.219 8.219 8.219 8.219-3.681 8.219-8.219c0-4.537-3.681-8.219-8.219-8.219zM16 21.331c-2.944 0-5.331-2.387-5.331-5.331s2.387-5.331 5.331-5.331c2.944 0 5.331 2.387 5.331 5.331s-2.387 5.331-5.331 5.331z"></path>
<path d="M26.462 7.456c0 1.060-0.859 1.919-1.919 1.919s-1.919-0.859-1.919-1.919c0-1.060 0.859-1.919 1.919-1.919s1.919 0.859 1.919 1.919z"></path>
</symbol>
<symbol id="icon-telegram" viewBox="0 0 32 32">
<path d="M16 0c-8.838 0-16 7.162-16 16s7.162 16 16 16 16-7.163 16-16-7.163-16-16-16zM23.863 10.969l-2.625 12.369c-0.181 0.881-0.712 1.087-1.45 0.681l-4-2.956-1.919 1.869c-0.225 0.219-0.4 0.4-0.8 0.4-0.519 0-0.431-0.194-0.606-0.688l-1.363-4.475-3.956-1.231c-0.856-0.262-0.862-0.85 0.194-1.269l15.412-5.95c0.7-0.319 1.381 0.169 1.113 1.25z"></path>
</symbol>
<symbol id="icon-home" viewBox="0 0 32 32">
<path d="M12.8 32h-8v-16h-4.8l16-16 16 16h-4.8v16h-8v-9.6h-6.4v9.6z"></path>
</symbol>
<symbol id="icon-location-food" viewBox="0 0 32 32">
<path d="M28.8 17.6v11.2c0 1.767-1.433 3.2-3.2 3.2s-3.2-1.433-3.2-3.2v0-8h-3.2v-16c0-2.651 2.149-4.8 4.8-4.8v0h4.8v17.6zM6.4 16c-1.767 0-3.2-1.433-3.2-3.2v0-11.2c0-0.884 0.716-1.6 1.6-1.6s1.6 0.716 1.6 1.6v0 6.4h1.6v-6.4c0-0.884 0.716-1.6 1.6-1.6s1.6 0.716 1.6 1.6v0 6.4h1.6v-6.4c0-0.884 0.716-1.6 1.6-1.6s1.6 0.716 1.6 1.6v0 11.2c0 1.767-1.433 3.2-3.2 3.2v0 12.8c0 1.767-1.433 3.2-3.2 3.2s-3.2-1.433-3.2-3.2v0-12.8z"></path>
</symbol>
<symbol id="icon-menu" viewBox="0 0 32 32">
<path d="M0 4.8h32v3.2h-32v-3.2zM0 14.4h32v3.2h-32v-3.2zM0 24h32v3.2h-32v-3.2z"></path>
</symbol>
<symbol id="icon-bus" viewBox="0 0 32 32">
<path d="M20.8 28.8h-9.6v1.6c0 0.884-0.716 1.6-1.6 1.6v0h-1.6c-0.884 0-1.6-0.716-1.6-1.6v0-1.6c-1.767 0-3.2-1.433-3.2-3.2v0-22.4c0-1.76 1.44-3.2 3.2-3.2h19.2c1.767 0 3.2 1.433 3.2 3.2v0 22.4c0 1.767-1.433 3.2-3.2 3.2v0 1.6c0 0.884-0.716 1.6-1.6 1.6v0h-1.6c-0.884 0-1.6-0.716-1.6-1.6v0-1.6zM6.4 8v9.6h8v-9.6h-8zM17.6 8v9.6h8v-9.6h-8zM8 3.2v1.6h16v-1.6h-16zM8.8 25.6c1.325 0 2.4-1.075 2.4-2.4s-1.075-2.4-2.4-2.4v0c-1.325 0-2.4 1.075-2.4 2.4s1.075 2.4 2.4 2.4v0zM23.2 25.6c1.325 0 2.4-1.075 2.4-2.4s-1.075-2.4-2.4-2.4v0c-1.325 0-2.4 1.075-2.4 2.4s1.075 2.4 2.4 2.4v0z"></path>
</symbol>
<symbol id="icon-car" viewBox="0 0 32 32">
<path d="M3.2 22.4v-4.8h-1.6c-0.884 0-1.6-0.716-1.6-1.6v0c0-0.884 0.716-1.6 1.6-1.6v0h1.6l6.4-11.2h12.8l6.4 11.2h1.6c0.884 0 1.6 0.716 1.6 1.6v0c0 0.884-0.716 1.6-1.6 1.6v0h-1.6v9.6c0 0.884-0.716 1.6-1.6 1.6v0h-1.6c-0.884 0-1.6-0.716-1.6-1.6v0-1.6h-16v1.6c0 0.884-0.716 1.6-1.6 1.6v0h-1.6c-0.884 0-1.6-0.716-1.6-1.6v0-4.8zM25.376 14.4l-4.576-8h-9.6l-4.576 8h18.752zM8.8 22.4c1.325 0 2.4-1.075 2.4-2.4s-1.075-2.4-2.4-2.4v0c-1.325 0-2.4 1.075-2.4 2.4s1.075 2.4 2.4 2.4v0zM23.2 22.4c1.325 0 2.4-1.075 2.4-2.4s-1.075-2.4-2.4-2.4v0c-1.325 0-2.4 1.075-2.4 2.4s1.075 2.4 2.4 2.4v0z"></path>
</symbol>
<symbol id="icon-close" viewBox="0 0 32 32">
<path d="M16 13.738l-11.314-11.314-2.262 2.262 11.314 11.314-11.314 11.314 2.262 2.262 11.314-11.314 11.314 11.314 2.262-2.262-11.314-11.314 11.314-11.314-2.262-2.262-11.314 11.314z"></path>
</symbol>
<symbol id="icon-menu" viewBox="0 0 32 32">
<path d="M2 6h28v6h-28zM2 14h28v6h-28zM2 22h28v6h-28z"></path>
</symbol>
<symbol id="icon-headphones" viewBox="0 0 32 32">
<path d="M25.6 12.8c0-5.302-4.298-9.6-9.6-9.6s-9.6 4.298-9.6 9.6v0 17.6h-3.2c-1.767 0-3.2-1.433-3.2-3.2v0-6.4c0-1.767 1.433-3.2 3.2-3.2v0-4.8c0-7.069 5.731-12.8 12.8-12.8s12.8 5.731 12.8 12.8v0 4.8c1.767 0 3.2 1.433 3.2 3.2v0 6.4c0 1.767-1.433 3.2-3.2 3.2v0h-3.2v-17.6zM19.2 16h4.8v16h-4.8v-16zM8 16h4.8v16h-4.8v-16z"></path>
</symbol>
<symbol id="icon-user" viewBox="0 0 32 32">
<path d="M18 22.082v-1.65c2.204-1.242 4-4.336 4-7.432 0-4.97 0-9-6-9s-6 4.030-6 9c0 3.096 1.796 6.19 4 7.432v1.65c-6.784 0.554-12 3.888-12 7.918h28c0-4.030-5.216-7.364-12-7.918z"></path>
</symbol>
<symbol id="icon-truck" viewBox="0 0 32 32">
<path d="M32 18l-4-8h-6v-4c0-1.1-0.9-2-2-2h-18c-1.1 0-2 0.9-2 2v16l2 2h2.536c-0.34 0.588-0.536 1.272-0.536 2 0 2.21 1.79 4 4 4s4-1.79 4-4c0-0.728-0.196-1.412-0.536-2h11.072c-0.34 0.588-0.536 1.272-0.536 2 0 2.21 1.79 4 4 4s4-1.79 4-4c0-0.728-0.196-1.412-0.536-2h2.536v-6zM22 18v-6h4.146l3 6h-7.146z"></path>
</symbol>
<symbol id="icon-dollar" viewBox="0 0 32 32">
<path d="M15 2c-8.284 0-15 6.716-15 15s6.716 15 15 15c8.284 0 15-6.716 15-15s-6.716-15-15-15zM15 29c-6.628 0-12-5.372-12-12s5.372-12 12-12c6.628 0 12 5.372 12 12s-5.372 12-12 12zM16 16v-4h4v-2h-4v-2h-2v2h-4v8h4v4h-4v2h4v2h2v-2h4v-8h-4zM14 16h-2v-4h2v4zM18 22h-2v-4h2v4z"></path>
</symbol>
<symbol id="icon-euro" viewBox="0 0 32 32">
<path d="M15 2c-8.284 0-15 6.716-15 15s6.716 15 15 15c8.284 0 15-6.716 15-15s-6.716-15-15-15zM15 29c-6.628 0-12-5.372-12-12s5.372-12 12-12c6.628 0 12 5.372 12 12s-5.372 12-12 12z"></path>
<path d="M20.964 20.136c-0.478-0.278-1.090-0.116-1.368 0.362-0.54 0.926-1.534 1.502-2.596 1.502h-4c-1.304 0-2.416-0.836-2.828-2h4.828c0.552 0 1-0.448 1-1s-0.448-1-1-1h-5v-2h5c0.552 0 1-0.448 1-1s-0.448-1-1-1h-4.828c0.412-1.164 1.524-2 2.828-2h4c1.062 0 2.056 0.576 2.596 1.502 0.278 0.478 0.89 0.64 1.368 0.362s0.64-0.89 0.362-1.368c-0.896-1.54-2.554-2.498-4.324-2.498h-4c-2.414 0-4.434 1.72-4.9 4h-1.1c-0.552 0-1 0.448-1 1s0.448 1 1 1h1v2h-1c-0.552 0-1 0.448-1 1s0.448 1 1 1h1.1c0.464 2.28 2.484 4 4.9 4h4c1.772 0 3.428-0.956 4.324-2.498 0.278-0.478 0.116-1.090-0.362-1.368z"></path>
</symbol>
<symbol id="icon-uan" viewBox="0 0 32 32">
<path d="M16 0c-8.822 0-16 7.178-16 16s7.178 16 16 16 16-7.178 16-16-7.178-16-16-16zM16 30.545c-8.021 0-14.545-6.525-14.545-14.545s6.525-14.545 14.545-14.545 14.545 6.525 14.545 14.545-6.525 14.545-14.545 14.545z"></path>
<path d="M16 2.836c-7.258 0-13.164 5.905-13.164 13.164s5.905 13.164 13.164 13.164 13.164-5.905 13.164-13.164-5.905-13.164-13.164-13.164zM16 28.727c-7.018 0-12.727-5.709-12.727-12.727s5.709-12.727 12.727-12.727 12.727 5.709 12.727 12.727-5.709 12.727-12.727 12.727z"></path>
<path d="M14.456 16.31h2.469l0.62-0.62h-2.469zM16 22.4c-0.048 0-0.095-0.001-0.143-0.004-0.837-0.042-1.52-0.544-1.827-1.341-0.249-0.646-0.252-1.599 0.486-2.337l0.682-0.682h-2.375c-0.734 1.057-0.902 2.397-0.422 3.646 0.554 1.439 1.844 2.381 3.367 2.458 0.077 0.004 0.154 0.006 0.232 0.006 2.486 0 4.509-2.023 4.509-4.509h-1.745c0 1.524-1.24 2.764-2.764 2.764zM16 9.6c0.048 0 0.095 0.001 0.143 0.004 0.837 0.042 1.52 0.544 1.827 1.341 0.249 0.646 0.252 1.599-0.486 2.337l-0.682 0.682h2.375c0.734-1.057 0.902-2.397 0.422-3.646-0.554-1.439-1.844-2.38-3.367-2.458-0.077-0.004-0.154-0.006-0.232-0.006-2.486 0-4.509 2.023-4.509 4.509h1.745c0-1.524 1.24-2.764 2.764-2.764zM11.855 16.601h8.291v1.145h-8.291zM11.855 14.255h8.291v1.145h-8.291z"></path>
</symbol>
</defs>
</svg>
